<svg width="132" height="30" viewBox="0 0 132 30" fill="none" xmlns="http://www.w3.org/2000/svg">
<g clip-path="url(#clip0_1_211)">
<path d="M94.7118 10.5362H92.0468V14.3483H94.7118C96.0636 14.3483 96.6499 13.4284 96.6499 12.4151C96.6499 11.4019 96.0636 10.5288 94.7118 10.5362Z" fill="black"/>
<path d="M79.9961 10.4574C77.6558 10.4574 75.9695 12.4003 75.9744 14.9999C75.9792 17.5995 77.6509 19.5228 79.9985 19.5228C82.3462 19.5228 84.0469 17.5995 84.0421 14.9999C84.0372 12.4003 82.3437 10.4549 79.9961 10.4574Z" fill="black"/>
<path d="M117.226 0.00732422H67.1629C66.7268 0.00732422 66.2883 0.0269972 65.8595 0.0663479C62.1822 0.398111 58.7604 2.11504 56.2674 4.87924C53.7745 7.64344 52.3909 11.2547 52.3891 15.0024C52.3891 18.9813 53.9461 22.7972 56.7177 25.6107C59.4892 28.4243 63.2482 30.0049 67.1677 30.0049H117.231C117.67 30.0049 118.098 29.9852 118.527 29.9458C122.204 29.6141 125.626 27.8972 128.119 25.133C130.612 22.3688 131.996 18.7575 131.998 15.0098C131.998 11.0322 130.442 7.21734 127.672 4.40405C124.902 1.59075 121.144 0.00928043 117.226 0.00732422ZM71.7031 17.8824C71.7031 20.482 69.6268 22.1101 66.5572 22.1101C63.4464 22.1101 61.3774 20.1869 61.2563 17.2331H64.0715C64.1926 18.6448 65.1108 19.54 66.5548 19.54C67.8703 19.54 68.7498 18.9867 68.7498 17.9316C68.7498 15.2115 61.6512 17.297 61.6488 11.842C61.6488 9.53757 63.6088 7.90698 66.3804 7.90698C69.3361 7.90698 71.33 9.62857 71.4099 12.27H68.6093C68.5148 11.1805 67.6886 10.4623 66.3804 10.4648C65.2296 10.4648 64.5052 11.0181 64.5052 11.8371C64.5076 14.7171 71.7031 12.3782 71.7031 17.875V17.8824ZM86.9978 15.0024C86.9978 19.0949 84.0251 22.1077 80.0155 22.1126C76.0059 22.1175 73.0162 19.0949 73.0186 15.0024C73.0211 10.9099 75.9913 7.90451 80.0155 7.89959C84.0396 7.89467 86.9929 10.9124 86.9978 14.995V15.0024ZM99.4991 12.4299C99.5235 13.0352 99.3721 13.6344 99.0637 14.153C98.7553 14.6717 98.3034 15.0868 97.7644 15.3467C98.2157 15.6582 98.5909 16.0704 98.8613 16.5516C99.1317 17.0328 99.2902 17.5705 99.3246 18.1234L99.6977 21.9527H96.7638L96.3883 18.5095C96.3694 18.0724 96.1836 17.66 95.8701 17.3597C95.5567 17.0594 95.1403 16.8949 94.7093 16.9011H92.0443V21.9404H89.0886V8.04961H94.8498C97.8056 8.05699 99.5015 9.87943 99.5015 12.4225L99.4991 12.4299ZM111.882 10.6173H107.831V21.9527H104.902V10.6394H100.858V8.04961H111.884L111.882 10.6173ZM123.145 17.8799C123.145 20.4869 121.069 22.1126 118.001 22.1126C114.888 22.1126 112.819 20.1844 112.698 17.2282H115.513C115.637 18.6374 116.553 19.5253 117.997 19.5277C119.312 19.5277 120.192 18.9744 120.192 17.9168C120.192 15.2114 113.093 17.2847 113.091 11.8297C113.091 9.52526 115.051 7.89467 117.822 7.89467C120.778 7.89467 122.772 9.61629 122.852 12.2577H120.051C119.957 11.1682 119.133 10.4525 117.825 10.4549C116.671 10.4549 115.947 11.0083 115.947 11.8199C115.949 14.722 123.145 12.3807 123.145 17.8726V17.8799Z" fill="black"/>
<path d="M12.0846 16.4068L15.2729 16.4043L13.6933 11.9011L12.0846 16.4068Z" fill="black"/>
<path d="M49.3171 0.154907H0V29.8303H49.3098L49.3171 0.154907ZM17.2305 21.9454L16.1523 18.9055H11.21L10.1294 21.938H7.08648L12.2832 8.0521H15.0791L20.2783 21.9454H17.2305ZM21.7125 21.9454V8.05702H24.661V19.3704H30.885V21.9478L21.7125 21.9454ZM32.3604 8.05702H35.3161V19.3704H41.5329V21.9527H32.3628L32.3604 8.05702Z" fill="black"/>
</g>
<defs>
<clipPath id="clip0_1_211">
<rect width="132" height="30" fill="white"/>
</clipPath>
</defs>
</svg>
