<svg width="167" height="29" viewBox="0 0 167 29" fill="none" xmlns="http://www.w3.org/2000/svg">
<path fill-rule="evenodd" clip-rule="evenodd" d="M14.2637 18.3476C15.4937 18.3276 17.4237 18.4876 18.1337 18.5476C18.8437 18.6076 19.0137 18.8476 19.1837 19.1076C19.4648 20.0005 17.6543 19.8817 15.8431 19.7629C15.4636 19.738 15.0841 19.7131 14.7237 19.6975C14.8691 20.0897 14.9762 20.4949 15.0437 20.9076C15.4163 20.8905 15.7829 20.8711 16.1258 20.8529L16.1271 20.8528L16.1276 20.8528L16.1277 20.8528C16.7873 20.8178 17.3586 20.7876 17.7137 20.7876C18.4537 20.7976 18.9037 20.9976 18.9237 21.3676C18.9437 21.7376 18.7937 22.0176 18.1137 22.0776C17.5637 22.1176 16.3637 22.1876 15.1137 22.1876V22.4276C15.109 22.6017 15.0932 22.7737 15.0778 22.9413L15.0778 22.9413C15.0605 23.1299 15.0437 23.3129 15.0437 23.4876H15.1737C15.5842 23.4742 15.9718 23.4521 16.3296 23.4317C17.8462 23.3451 18.8304 23.289 18.7737 24.0576C18.7537 24.4276 18.4137 24.6376 17.5137 24.7476C17.2816 24.7853 16.7702 24.7756 16.1128 24.7632H16.1128H16.1127H16.1127H16.1127H16.1126H16.1126H16.1126H16.1125H16.1125H16.1124H16.1124H16.1124H16.1123H16.1123H16.1122H16.1122H16.1122H16.1121H16.1121H16.112H16.112H16.112H16.1119H16.1119H16.1119H16.1118H16.1118H16.1117H16.1117H16.1117H16.1116H16.1116H16.1115H16.1115H16.1115H16.1114H16.1114H16.1114H16.1113H16.1113H16.1112H16.1112H16.1112H16.1111H16.1111H16.111H16.111H16.111H16.1109H16.1109H16.1108H16.1108H16.1108H16.1107H16.1107H16.1107C15.7204 24.7559 15.2788 24.7476 14.8137 24.7476C14.6576 25.6141 14.244 26.4134 13.6268 27.0414C13.0095 27.6693 12.2174 28.0966 11.3537 28.2676L10.2237 28.3676L11.0037 27.5376C11.7291 26.7077 12.2618 25.7276 12.5637 24.6676C11.4437 24.5776 10.4337 24.5776 9.8737 24.5776C9.56546 24.5717 9.13398 24.5892 8.62222 24.6099H8.6222H8.62217C5.61414 24.7314 -0.167213 24.9651 0.00370722 21.2476C0.148204 18.173 2.14218 18.2561 4.93032 18.3723H4.93037H4.93043H4.93048H4.93054H4.93061C5.61559 18.4008 6.3485 18.4314 7.11369 18.4176H10.4537C9.80389 17.8688 9.10796 17.3769 8.3737 16.9475L7.3737 16.2976C5.4937 14.9276 2.15374 11.2276 3.03374 6.85758C3.91374 2.48758 7.55372 -0.492456 11.3337 0.0675441C12.2422 0.161381 13.1218 0.440538 13.9182 0.887735C14.7146 1.33493 15.4107 1.9407 15.9637 2.66758C16.5085 3.52022 16.7817 4.51807 16.7474 5.52927C16.713 6.54048 16.3727 7.51745 15.7713 8.33115C15.17 9.14486 14.336 9.75698 13.3794 10.0866C12.4228 10.4163 11.3887 10.448 10.4137 10.1776C9.6843 9.9583 9.01954 9.56389 8.47746 9.02879C7.93539 8.49368 7.53241 7.83413 7.3037 7.10758C7.19913 6.64206 7.21795 6.15729 7.35826 5.70127C7.49857 5.24525 7.75557 4.83376 8.10374 4.50755C9.62374 2.99755 10.7337 3.51757 11.0337 3.71757C11.2583 3.84297 11.4339 4.04065 11.532 4.27848C11.63 4.51631 11.6447 4.78031 11.5737 5.02757C11.4714 5.43698 11.2421 5.80352 10.9188 6.07475C10.5955 6.34597 10.1947 6.50798 9.77373 6.53758C9.75747 6.54106 9.74162 6.54414 9.72615 6.54714C9.60844 6.57001 9.51325 6.5885 9.4337 6.7476C9.3437 6.9276 9.5037 7.47759 10.4337 8.29759C10.7943 8.48142 11.1885 8.59034 11.5923 8.61784C11.9962 8.64533 12.4015 8.59082 12.7837 8.45756C13.2292 8.31574 13.6272 8.05418 13.9341 7.70146C14.2409 7.34873 14.4449 6.9184 14.5237 6.45756C14.7329 5.80338 14.7346 5.10057 14.5287 4.44535C14.3229 3.79013 13.9194 3.21458 13.3737 2.79759C12.9422 2.40399 12.4315 2.10714 11.8759 1.92692C11.3203 1.7467 10.7327 1.68727 10.1523 1.7526C9.57185 1.81793 9.0121 2.00655 8.51048 2.30576C8.00887 2.60498 7.57695 3.00791 7.2437 3.48759C5.7937 5.27759 3.82373 8.78754 6.90373 12.1275C7.79164 13.0173 8.7703 13.8117 9.82371 14.4976C11.4516 15.4892 12.863 16.7985 13.9737 18.3476H14.2637ZM12.2537 20.9876C12.0586 20.4998 11.8069 20.0366 11.5037 19.6076C11.3343 19.6006 11.17 19.5923 11.0118 19.5843L11.0116 19.5843L11.0115 19.5843L11.0114 19.5843L11.0113 19.5843C9.80694 19.5234 8.96021 19.4805 8.9337 20.1876C8.9037 20.9876 10.5637 20.9876 12.2536 20.9876H12.2537ZM12.7136 23.6076H12.7137L12.7037 23.5876C12.7378 23.1264 12.7142 22.6629 12.6337 22.2076C12.5109 22.2027 12.3894 22.1977 12.2696 22.1927C10.419 22.1164 8.96187 22.0562 8.9337 22.8076C8.9037 23.6076 10.8137 23.6076 12.7136 23.6076ZM165.004 14.9276C164.699 14.9253 164.394 14.9521 164.094 15.0076V18.0076C164.362 18.0495 164.633 18.0696 164.904 18.0676C165.365 18.0938 165.819 17.9437 166.174 17.6476C166.35 17.4942 166.489 17.303 166.581 17.0883C166.672 16.8735 166.715 16.6408 166.704 16.4076C166.716 16.1959 166.68 15.9843 166.599 15.7885C166.517 15.5928 166.393 15.4181 166.234 15.2776C165.88 15.0143 165.443 14.8898 165.004 14.9276ZM165.794 17.2676C165.695 17.3776 165.572 17.4643 165.436 17.5214C165.299 17.5785 165.152 17.6045 165.004 17.5976C164.887 17.6088 164.77 17.6088 164.654 17.5976V15.4876C164.79 15.4702 164.928 15.4702 165.064 15.4876C165.198 15.4788 165.333 15.4973 165.46 15.542C165.587 15.5867 165.704 15.6566 165.804 15.7476C165.985 15.9581 166.078 16.2302 166.064 16.5076C166.061 16.7839 165.966 17.0514 165.794 17.2676ZM125.692 14.9376H23.9121V15.1876H125.692V14.9376ZM107.083 8.06759H109.903V6.79759H107.083V4.73759H110.453V3.40759H105.553V11.8076H107.083V8.06759ZM42.4931 11.7976H41.0231L41.0432 6.99762C41.0292 6.7095 40.9991 6.42234 40.9531 6.13757C41.8447 5.78704 42.7866 5.58113 43.7431 5.52759C45.2431 5.52759 46.4231 6.01758 46.4231 7.70758V11.7976H44.9531V7.94757C44.9618 7.78902 44.9355 7.63048 44.876 7.48328C44.8164 7.33607 44.7251 7.20385 44.6086 7.09595C44.4921 6.98804 44.3533 6.90712 44.202 6.85901C44.0506 6.8109 43.8906 6.79674 43.7332 6.81757C43.3069 6.83214 42.8868 6.92363 42.4931 7.08759V7.3476V11.7976ZM37.2021 11.9376C37.9291 11.9269 38.6466 11.7704 39.3121 11.4776L38.8521 10.3376C38.3577 10.5442 37.8279 10.6529 37.2921 10.6576C37.0913 10.6811 36.8878 10.6633 36.6942 10.6051C36.5006 10.547 36.321 10.4498 36.1664 10.3195C36.0118 10.1893 35.8855 10.0288 35.7954 9.84786C35.7052 9.66694 35.653 9.46945 35.6421 9.2676H39.6421C39.6885 8.99991 39.7153 8.72919 39.7221 8.4576C39.7581 8.07665 39.7122 7.69241 39.5873 7.33071C39.4624 6.969 39.2616 6.63826 38.9982 6.36067C38.7348 6.08309 38.415 5.86508 38.0604 5.72139C37.7057 5.5777 37.3244 5.51163 36.9421 5.52761C35.0621 5.52761 34.0921 6.95764 34.0921 8.74764C34.0652 9.16672 34.1265 9.58674 34.2722 9.98061C34.4179 10.3745 34.6447 10.7334 34.9379 11.0341C35.231 11.3348 35.584 11.5706 35.9741 11.7262C36.3641 11.8819 36.7825 11.9539 37.2021 11.9376ZM36.9221 6.73763C37.0982 6.73508 37.2729 6.7701 37.4345 6.84035C37.5961 6.9106 37.7408 7.01446 37.8591 7.14504C37.9773 7.27561 38.0665 7.42985 38.1204 7.59755C38.1744 7.76526 38.192 7.94259 38.1721 8.11763H35.6421C35.6341 7.94262 35.661 7.76774 35.7212 7.60323C35.7814 7.43871 35.8738 7.28783 35.9929 7.15938C36.1121 7.03093 36.2556 6.92747 36.4151 6.85506C36.5746 6.78265 36.7469 6.74275 36.9221 6.73763ZM25.4826 5.15771C25.4435 5.0641 25.4134 4.96702 25.3926 4.86774V11.7877H23.8926V3.40771H26.1626L28.3426 7.8877C28.3818 7.72064 28.4422 7.55933 28.5226 7.40771L30.4426 3.40771H32.7026V11.7877H31.1426V4.83771C31.1232 4.94709 31.0931 5.05429 31.0526 5.15771L28.6526 9.99774C28.0526 9.99774 27.7525 9.80774 27.3625 8.99774L25.4826 5.15771ZM55.1337 11.9376C56.0227 11.9075 56.9022 11.7457 57.7437 11.4576C57.7034 11.2025 57.6768 10.9455 57.6638 10.6876V7.52759C57.6638 6.10759 56.6637 5.52759 55.3637 5.52759C54.53 5.53428 53.7066 5.71125 52.9437 6.04761L53.4437 7.1676C53.9858 6.94038 54.5661 6.81823 55.1537 6.80762C55.5237 6.80762 56.1537 6.80761 56.1537 7.36761C56.1537 7.79181 55.5549 7.91424 54.8321 8.06202C53.7317 8.287 52.3438 8.57075 52.3438 10.0676C52.3737 11.5076 53.9537 11.9376 55.1337 11.9376ZM56.1837 8.7876V10.2976C56.1778 10.3775 56.1778 10.4577 56.1837 10.5376C55.8378 10.6484 55.4769 10.7057 55.1137 10.7076C54.5837 10.7076 53.9738 10.5976 53.9738 9.95758C53.9919 9.41845 54.6229 9.2793 55.2243 9.14668C55.6156 9.06037 55.9945 8.97683 56.1837 8.7876ZM50.1035 12.0176C48.9935 12.0176 48.2134 11.5076 48.2134 10.3176L48.2234 6.8576H47.5234V5.68762H48.2234V3.9776H49.7034V5.65759H51.4135V6.93762H49.6934V10.2076C49.6934 10.5876 49.8834 10.7276 50.2534 10.7276C50.6275 10.7086 50.9959 10.6275 51.3434 10.4876L51.7534 11.6776C51.2257 11.8804 50.6683 11.9952 50.1035 12.0176ZM53.0626 18.1776C53.056 18.2493 53.0656 18.3215 53.0907 18.389C53.1158 18.4565 53.1557 18.5175 53.2076 18.5674C53.2594 18.6173 53.3219 18.655 53.3903 18.6775C53.4586 18.7 53.5312 18.7069 53.6026 18.6976C53.7605 18.7011 53.915 18.6519 54.0418 18.5578C54.1686 18.4636 54.2603 18.3298 54.3026 18.1776C54.3121 18.1053 54.3051 18.0318 54.2821 17.9626C54.259 17.8934 54.2204 17.8304 54.1693 17.7783C54.1182 17.7263 54.0559 17.6865 53.9872 17.6621C53.9184 17.6377 53.8451 17.6294 53.7726 17.6376C53.6103 17.6329 53.4514 17.6839 53.3222 17.7822C53.193 17.8804 53.1014 18.02 53.0626 18.1776ZM151.014 5.66748H152.484V11.8075H151.014V5.66748ZM156.943 11.9376C157.583 11.9636 158.216 11.7975 158.76 11.4609C159.305 11.1244 159.737 10.6326 160 10.0488C160.263 9.46498 160.345 8.81587 160.236 8.18488C160.127 7.55388 159.832 6.96984 159.389 6.50781C158.946 6.04579 158.374 5.72687 157.749 5.5921C157.123 5.45734 156.471 5.51286 155.876 5.75153C155.282 5.99019 154.773 6.40113 154.414 6.93146C154.055 7.46179 153.863 8.0873 153.863 8.7276C153.833 9.14569 153.892 9.56534 154.034 9.95947C154.177 10.3536 154.401 10.7135 154.691 11.0159C154.981 11.3184 155.331 11.5566 155.719 11.7153C156.107 11.8741 156.524 11.9498 156.943 11.9376ZM156.943 6.79761C158.033 6.79761 158.393 7.79761 158.393 8.79761C158.393 9.79761 158.033 10.7176 156.943 10.7176C155.853 10.7176 155.493 9.71761 155.493 8.79761C155.493 7.87761 155.853 6.79761 156.943 6.79761ZM67.6823 18.2376L67.5923 18.7376H64.4023L64.4823 18.2376H67.6823ZM151.703 4.40746C151.82 4.41284 151.936 4.39467 152.046 4.35399C152.155 4.31331 152.256 4.25097 152.34 4.17071C152.425 4.09044 152.493 3.99385 152.54 3.88677C152.587 3.77969 152.612 3.66433 152.613 3.54748C152.61 3.43059 152.585 3.31535 152.538 3.20836C152.49 3.10138 152.423 3.00473 152.338 2.92394C152.254 2.84315 152.154 2.77977 152.045 2.73748C151.936 2.69519 151.82 2.67482 151.703 2.67748C151.587 2.67479 151.473 2.69533 151.365 2.73797C151.258 2.78061 151.16 2.84446 151.078 2.92565C150.996 3.00684 150.931 3.10373 150.887 3.21056C150.843 3.31739 150.821 3.432 150.823 3.54748C150.818 3.66331 150.838 3.77879 150.881 3.88647C150.924 3.99414 150.989 4.09158 151.072 4.1726C151.155 4.25362 151.254 4.31635 151.363 4.3568C151.471 4.39725 151.587 4.41453 151.703 4.40746ZM92.8829 12.0176C91.7629 12.0176 90.9929 11.5076 90.9929 10.3176V6.8576H90.293V5.68762H90.9929V3.9776H92.463V5.65759H94.1829V6.93762H92.463V10.2076C92.463 10.5876 92.663 10.7276 93.033 10.7276C93.4069 10.7075 93.7751 10.6264 94.1229 10.4876L94.5229 11.6776C93.9987 11.8804 93.4446 11.9952 92.8829 12.0176ZM88.702 11.9376C89.1205 11.9246 89.5348 11.8504 89.9319 11.7176L89.592 10.5576C89.4453 10.6328 89.2859 10.6802 89.1219 10.6976C88.8919 10.6976 88.822 10.5076 88.822 10.3176V2.7876H87.352V10.6576C87.3368 10.8357 87.3618 11.0149 87.4253 11.1819C87.4889 11.349 87.5892 11.4996 87.7189 11.6226C87.8486 11.7455 88.0043 11.8377 88.1745 11.8922C88.3447 11.9468 88.525 11.9623 88.702 11.9376ZM116.18 11.4609C115.636 11.7975 115.003 11.9636 114.363 11.9376C113.944 11.9498 113.527 11.8741 113.139 11.7153C112.751 11.5566 112.401 11.3184 112.111 11.0159C111.82 10.7135 111.597 10.3536 111.454 9.95947C111.312 9.56534 111.253 9.14569 111.283 8.7276C111.283 8.0873 111.475 7.46179 111.834 6.93146C112.193 6.40113 112.702 5.99019 113.296 5.75153C113.89 5.51286 114.542 5.45734 115.168 5.5921C115.794 5.72687 116.366 6.04579 116.809 6.50781C117.252 6.96984 117.547 7.55388 117.656 8.18488C117.765 8.81587 117.683 9.46498 117.42 10.0488C117.156 10.6326 116.725 11.1244 116.18 11.4609ZM115.813 8.79761C115.813 7.79761 115.463 6.79761 114.363 6.79761C113.273 6.79761 112.923 7.87761 112.923 8.79761C112.923 9.71761 113.263 10.7176 114.363 10.7176C115.463 10.7176 115.813 9.79761 115.813 8.79761ZM103.963 18.1775C103.956 18.2492 103.966 18.3214 103.991 18.3889C104.016 18.4563 104.056 18.5173 104.108 18.5673C104.16 18.6172 104.222 18.6548 104.291 18.6774C104.359 18.6999 104.432 18.7068 104.503 18.6974C104.66 18.7005 104.813 18.6509 104.938 18.5566C105.063 18.4624 105.153 18.3289 105.193 18.1775C105.253 17.8675 105.003 17.6375 104.663 17.6375C104.502 17.6332 104.344 17.6846 104.217 17.783C104.089 17.8813 104 18.0207 103.963 18.1775ZM98.3436 6.80762C97.842 6.82988 97.3554 6.98515 96.9336 7.25757L96.9036 11.7876H95.4336V2.7876H96.9036V5.92761C97.4774 5.67389 98.0963 5.53785 98.7236 5.52759C99.0117 5.50121 99.302 5.53994 99.5731 5.64087C99.8441 5.7418 100.089 5.90238 100.29 6.11072C100.49 6.31906 100.642 6.5698 100.732 6.84448C100.823 7.11916 100.851 7.41071 100.814 7.69757V11.7976H99.3436V7.9176C99.3592 7.77734 99.3448 7.63536 99.3016 7.50104C99.2583 7.36671 99.1871 7.24309 99.0927 7.13824C98.9982 7.0334 98.8826 6.94975 98.7535 6.89276C98.6244 6.83577 98.4847 6.80676 98.3436 6.80762ZM83.2526 11.9376C84.1449 11.9085 85.0279 11.7466 85.8726 11.4576C85.8273 11.2029 85.7973 10.9458 85.7827 10.6876V7.52759C85.7827 6.10759 84.7826 5.52759 83.4926 5.52759C82.6588 5.53315 81.8351 5.71017 81.0726 6.04761L81.5726 7.1676C82.1144 6.93944 82.6949 6.81725 83.2827 6.80762C83.6527 6.80762 84.2827 6.80761 84.2827 7.36761C84.2827 7.79181 83.6838 7.91424 82.961 8.06202C81.8606 8.287 80.4727 8.57075 80.4727 10.0676C80.5027 11.5076 82.0726 11.9376 83.2526 11.9376ZM84.3126 8.7876V10.2976C84.3086 10.3776 84.3086 10.4576 84.3126 10.5376C83.9669 10.6491 83.6059 10.7065 83.2426 10.7076C82.7226 10.7076 82.1027 10.5976 82.1027 9.95758C82.1148 9.41696 82.7431 9.27853 83.3467 9.14558C83.7367 9.05966 84.1163 8.97602 84.3126 8.7876ZM79.1324 11.4776C78.4662 11.7684 77.7492 11.9247 77.0224 11.9377C76.6028 11.9539 76.1844 11.8819 75.7944 11.7262C75.4043 11.5706 75.0513 11.3348 74.7581 11.0341C74.465 10.7334 74.2382 10.3745 74.0925 9.98062C73.9468 9.58676 73.8855 9.16673 73.9124 8.74765C73.9124 6.95765 74.8824 5.52762 76.7624 5.52762C77.1455 5.51017 77.5279 5.57513 77.8838 5.71817C78.2397 5.86121 78.5607 6.07896 78.8252 6.35672C79.0897 6.63447 79.2915 6.96578 79.4169 7.32822C79.5424 7.69065 79.5885 8.07578 79.5524 8.45761C79.5422 8.72944 79.5121 9.00016 79.4624 9.26761H75.4624C75.472 9.46902 75.5229 9.66631 75.612 9.8472C75.7011 10.0281 75.8265 10.1887 75.9803 10.3191C76.1341 10.4494 76.3131 10.5468 76.5061 10.605C76.6992 10.6633 76.9022 10.6812 77.1024 10.6576C77.6385 10.655 78.1686 10.5462 78.6624 10.3376L79.1324 11.4776ZM77.246 6.84048C77.084 6.77032 76.909 6.73527 76.7324 6.73764H76.7024C76.5303 6.74659 76.3617 6.78937 76.2061 6.86362C76.0506 6.93786 75.9112 7.04212 75.796 7.17032C75.6808 7.29851 75.592 7.44813 75.5348 7.61069C75.4775 7.77325 75.453 7.94556 75.4624 8.11765H77.9924C78.0107 7.94206 77.9918 7.76453 77.9366 7.59683C77.8814 7.42913 77.7913 7.27506 77.6723 7.14468C77.5533 7.01431 77.408 6.91064 77.246 6.84048ZM121.323 11.9377C122.281 11.8856 123.223 11.676 124.113 11.3177C124.066 11.033 124.036 10.7459 124.023 10.4577V5.65771H122.553V10.1177C122.548 10.2043 122.548 10.2911 122.553 10.3777C122.157 10.535 121.738 10.6262 121.313 10.6477C121.156 10.6685 120.996 10.6544 120.844 10.6063C120.693 10.5582 120.554 10.4773 120.438 10.3694C120.321 10.2615 120.23 10.1292 120.17 9.98199C120.111 9.83479 120.084 9.67625 120.093 9.5177V5.65771H118.703V9.74774C118.703 11.4077 119.833 11.9377 121.323 11.9377ZM70.9819 8.06759H67.282V11.8076H65.752V3.40759H67.282V6.79759H70.9819V3.40759H72.512V11.8076H70.9819V8.06759ZM60.5633 11.9376C60.982 11.9263 61.3967 11.8521 61.7933 11.7176L61.4533 10.5576C61.3066 10.6328 61.1473 10.6802 60.9833 10.6976C60.7533 10.6976 60.6933 10.5076 60.6933 10.3176V2.7876H59.2133V10.6576C59.1981 10.8357 59.2232 11.0149 59.2867 11.1819C59.3502 11.349 59.4505 11.4996 59.5802 11.6226C59.7099 11.7455 59.8656 11.8377 60.0358 11.8922C60.206 11.9468 60.3863 11.9623 60.5633 11.9376ZM32.451 23.9282C32.5424 23.8588 32.6064 23.7594 32.6321 23.6476L32.7021 23.1676H33.0321L32.9721 23.5976C32.892 23.8897 32.7167 24.1467 32.4739 24.3278C32.2312 24.509 31.9349 24.6039 31.6321 24.5976C31.4981 24.6081 31.3634 24.5895 31.2373 24.543C31.1112 24.4964 30.9967 24.4231 30.9016 24.3281C30.8066 24.233 30.7332 24.1185 30.6867 23.9924C30.6402 23.8663 30.6215 23.7316 30.6321 23.5976L31.1421 20.4576C31.1533 20.392 31.1491 20.3248 31.1299 20.2611C31.1108 20.1974 31.0771 20.139 31.0316 20.0906C30.986 20.0421 30.9298 20.0049 30.8674 19.9818C30.8051 19.9587 30.7382 19.9504 30.6721 19.9576C30.3421 19.9576 29.9521 20.2676 29.5121 20.7176L29.2421 20.9976L28.6721 24.4576H27.5121L28.1621 20.4576C28.1713 20.3924 28.1657 20.3259 28.1458 20.2632C28.1258 20.2004 28.0921 20.1429 28.047 20.0949C28.0019 20.0469 27.9466 20.0097 27.8851 19.9859C27.8237 19.9621 27.7577 19.9524 27.6921 19.9576C27.2265 20.0694 26.8135 20.3377 26.5221 20.7176L26.2721 20.9976L25.7021 24.4576H24.5021L25.1621 20.3476C25.1681 20.2966 25.1627 20.245 25.1465 20.1963C25.1304 20.1477 25.1037 20.1032 25.0684 20.066C25.0331 20.0288 24.99 19.9998 24.9423 19.9811C24.8945 19.9623 24.8433 19.9543 24.7921 19.9576C24.6765 19.9547 24.5635 19.9921 24.4724 20.0632C24.3812 20.1343 24.3175 20.2348 24.2921 20.3476L24.2221 20.7776H23.9121L23.9821 20.3476C24.0657 20.0556 24.2433 19.7993 24.4874 19.6185C24.7314 19.4377 25.0284 19.3425 25.3321 19.3476C25.4669 19.3334 25.6031 19.3496 25.7309 19.3948C25.8587 19.4401 25.9747 19.5133 26.0705 19.6091C26.1663 19.705 26.2396 19.821 26.2849 19.9488C26.3301 20.0765 26.3462 20.2128 26.3321 20.3476L26.6821 19.9976C27.0608 19.5809 27.5815 19.3205 28.1421 19.2676C28.2915 19.2608 28.4408 19.2845 28.5807 19.3374C28.7207 19.3902 28.8484 19.4711 28.9561 19.575C29.0637 19.6789 29.149 19.8036 29.2068 19.9416C29.2646 20.0796 29.2936 20.228 29.2921 20.3776L29.6821 19.9776C30.0628 19.5778 30.5731 19.3262 31.1221 19.2676C31.2807 19.2508 31.4411 19.2705 31.591 19.325C31.7409 19.3795 31.8765 19.4674 31.9873 19.5821C32.0982 19.6969 32.1814 19.8353 32.2308 19.987C32.2801 20.1387 32.2942 20.2996 32.2721 20.4576L31.7421 23.6476C31.739 23.6991 31.7471 23.7508 31.7657 23.7989C31.7844 23.8471 31.8132 23.8907 31.8502 23.9268C31.8872 23.9628 31.9315 23.9905 31.9802 24.0079C32.0288 24.0253 32.0806 24.032 32.1321 24.0276C32.2467 24.0328 32.3596 23.9977 32.451 23.9282ZM39.3232 23.6476C39.2958 23.7585 39.2312 23.8568 39.1402 23.9259C39.0493 23.995 38.9374 24.0309 38.8232 24.0276C38.7717 24.032 38.7199 24.0253 38.6712 24.0079C38.6226 23.9905 38.5783 23.9628 38.5413 23.9268C38.5043 23.8907 38.4755 23.8471 38.4568 23.799C38.4382 23.7508 38.4301 23.6992 38.4331 23.6476L39.0732 19.7576C39.0732 19.4976 38.8931 19.2576 38.5631 19.2576C38.4147 19.2571 38.2704 19.3061 38.1527 19.3965C38.0351 19.487 37.9508 19.614 37.9132 19.7576C37.9132 19.7576 37.6032 21.8476 37.5432 22.0676L37.3731 23.1576C37.2342 23.3937 37.0393 23.592 36.8056 23.735C36.5719 23.878 36.3067 23.9613 36.0332 23.9776C35.2132 23.9776 34.6832 23.0876 34.8832 21.9776C34.8726 21.9248 34.8726 21.8704 34.8832 21.8176C35.2132 20.5776 35.9732 20.2576 36.3532 20.2576C36.7332 20.2576 36.8632 20.6976 36.9132 21.0476V21.2076C36.8658 21.137 36.8017 21.0792 36.7268 21.0391C36.6518 20.999 36.5682 20.9779 36.4832 20.9776C36.2422 21.0179 36.0219 21.1387 35.8584 21.3203C35.695 21.5019 35.5979 21.7337 35.5832 21.9776C35.5783 22.0442 35.5783 22.111 35.5832 22.1776V22.2276C35.5782 22.2708 35.5782 22.3144 35.5832 22.3576C35.5854 22.5136 35.6463 22.6631 35.7538 22.7761C35.8613 22.8892 36.0075 22.9575 36.1632 22.9676C36.3139 22.9547 36.4587 22.9027 36.5832 22.8168C36.7077 22.7308 36.8076 22.614 36.8731 22.4776C36.8731 22.4776 36.9332 22.3676 36.9632 22.2976C37.0115 22.1771 37.0515 22.0535 37.0832 21.9276V21.7776C37.1437 21.4816 37.1706 21.1796 37.1632 20.8776C37.1413 20.6381 37.0874 20.4028 37.0031 20.1776L36.9431 20.0576C36.8645 19.9158 36.7572 19.7919 36.6281 19.6938C36.499 19.5957 36.3508 19.5255 36.1931 19.4876C35.9915 19.4418 35.7817 19.445 35.5816 19.4973C35.3814 19.5495 35.1968 19.6491 35.0432 19.7876C34.363 20.3392 33.9107 21.1227 33.7732 21.9876C33.5432 23.4776 34.2631 24.6976 35.4331 24.6976C35.783 24.6692 36.1226 24.5651 36.4283 24.3925C36.7339 24.2198 36.9983 23.9827 37.2032 23.6976C37.189 23.8324 37.2051 23.9686 37.2504 24.0964C37.2957 24.2241 37.3689 24.3402 37.4647 24.436C37.5605 24.5319 37.6766 24.6051 37.8044 24.6503C37.9321 24.6956 38.0684 24.7117 38.2032 24.6976C38.5051 24.7052 38.8008 24.6106 39.0422 24.4291C39.2836 24.2476 39.4566 23.9898 39.5332 23.6976L39.6032 23.2676H39.3131L39.3232 23.6476ZM144.923 17.0676C144.923 17.1576 144.923 17.2176 144.873 17.2676L144.193 14.9776H143.543L142.953 17.0676C142.928 17.1328 142.908 17.1996 142.893 17.2676L142.283 14.9776H141.643L142.453 17.6376C142.502 17.7834 142.602 17.9073 142.733 17.9877C142.865 18.068 143.02 18.0998 143.173 18.0776L143.863 15.7976L144.413 17.6376C144.503 17.9276 144.743 18.0776 145.153 18.0776L146.053 14.9776H145.473L144.923 17.0676ZM148.934 15.4576H147.354L147.404 15.0076H149.704V15.4076L148.074 17.5176H149.704V17.9976H147.314C147.282 17.9356 147.265 17.8672 147.264 17.7976C147.274 17.6724 147.323 17.5535 147.404 17.4576L148.934 15.4576ZM140.142 16.6776H141.162V16.2176H140.142V15.4676H141.362V14.9876H139.582V18.0376H141.402V17.5576H140.142V16.6776ZM137.913 2.7876V10.6576C137.913 10.9276 137.983 11.4776 137.983 11.4776C137.22 11.7598 136.416 11.9152 135.603 11.9376C135.161 11.9586 134.719 11.8877 134.306 11.7293C133.893 11.5709 133.517 11.3286 133.202 11.0175C132.887 10.7064 132.64 10.3334 132.477 9.92206C132.314 9.5107 132.237 9.06988 132.253 8.62756C132.216 8.23555 132.26 7.84002 132.384 7.46625C132.508 7.09248 132.709 6.74875 132.973 6.45697C133.238 6.16519 133.56 5.93182 133.92 5.77179C134.28 5.61176 134.669 5.52857 135.063 5.52759C135.543 5.52566 136.016 5.63884 136.443 5.8576V2.7876H137.913ZM133.903 8.65759C133.903 9.80759 134.433 10.6576 135.623 10.6576C135.9 10.6521 136.175 10.5979 136.433 10.4976V10.2576V7.04761C136.14 6.84555 135.789 6.74377 135.433 6.75757C134.313 6.75757 133.903 7.50759 133.903 8.65759ZM141.964 11.9376C142.856 11.9085 143.739 11.7466 144.584 11.4576C144.538 11.2029 144.508 10.9458 144.494 10.6876V7.52759C144.494 6.10759 143.494 5.52759 142.204 5.52759C141.37 5.53315 140.546 5.71017 139.784 6.04761L140.284 7.1676C140.825 6.93944 141.406 6.81725 141.994 6.80762C142.364 6.80762 142.994 6.80761 142.994 7.36761C142.994 7.79181 142.395 7.91424 141.672 8.06202C140.572 8.287 139.184 8.57075 139.184 10.0676C139.214 11.5076 140.784 11.9376 141.964 11.9376ZM143.024 8.7876V10.2976C143.02 10.3776 143.02 10.4576 143.024 10.5376C142.678 10.6491 142.317 10.7065 141.954 10.7076C141.434 10.7076 140.814 10.5976 140.814 9.95758C140.826 9.41629 141.452 9.27819 142.056 9.14509C142.444 9.05934 142.824 8.97567 143.024 8.7876ZM147.873 10.2076C147.873 10.5876 148.063 10.7276 148.433 10.7276C148.812 10.6832 149.181 10.575 149.523 10.4076L149.933 11.5976C149.409 11.7995 148.855 11.9144 148.293 11.9376C147.173 11.9376 146.393 11.4276 146.393 10.2376V6.8476H145.693V5.68762H146.393V3.9776H147.873V5.65759H149.593V6.93762H147.873V10.2076ZM138.414 17.4076C138.395 17.3619 138.372 17.3183 138.344 17.2776L137.094 15.0076H136.264V18.0676H136.824V15.6076C136.838 15.6471 136.858 15.6842 136.884 15.7176L138.014 17.7176C138.072 17.8339 138.162 17.9314 138.274 17.9986C138.385 18.0658 138.514 18.1001 138.644 18.0976C138.756 18.0963 138.868 18.076 138.974 18.0376V15.0376H138.414V17.4076ZM151.674 16.6776H150.654V17.5576H151.914V18.0376H150.094V14.9876H151.874V15.4676H150.654V16.2176H151.674V16.6776ZM46.252 23.5976C46.2266 23.7104 46.1629 23.8109 46.0717 23.882C45.9806 23.9532 45.8675 23.9905 45.752 23.9876C45.7 23.9925 45.6476 23.9856 45.5986 23.9676C45.5496 23.9495 45.5052 23.9208 45.4688 23.8834C45.4324 23.846 45.4048 23.8009 45.388 23.7515C45.3712 23.702 45.3658 23.6495 45.3719 23.5976L46.0519 19.4476H44.892L44.3719 22.5676L43.972 23.0176C43.432 23.6476 43.032 23.8876 42.692 23.8876C42.6196 23.8949 42.5466 23.8854 42.4786 23.8597C42.4106 23.834 42.3495 23.7929 42.3 23.7396C42.2506 23.6863 42.2142 23.6222 42.1937 23.5525C42.1732 23.4827 42.1692 23.4092 42.1819 23.3376L42.662 20.3376C42.6761 20.2028 42.6599 20.0666 42.6147 19.9388C42.5694 19.8111 42.4962 19.695 42.4004 19.5992C42.3046 19.5034 42.1885 19.4301 42.0608 19.3849C41.933 19.3396 41.7968 19.3235 41.662 19.3376C41.3579 19.3308 41.0601 19.4254 40.8157 19.6064C40.5712 19.7875 40.394 20.0447 40.312 20.3376L40.252 20.7676H40.5519L40.6219 20.3376C40.6474 20.2248 40.7111 20.1244 40.8022 20.0532C40.8934 19.9821 41.0064 19.9448 41.1219 19.9476C41.1739 19.9428 41.2263 19.9496 41.2753 19.9677C41.3243 19.9857 41.3687 20.0145 41.4051 20.0518C41.4415 20.0892 41.4691 20.1343 41.4859 20.1837C41.5027 20.2332 41.5081 20.2858 41.502 20.3376L41.002 23.4076C40.9749 23.5731 40.9863 23.7426 41.0355 23.903C41.0846 24.0633 41.1701 24.2101 41.2852 24.3321C41.4004 24.454 41.5421 24.5477 41.6993 24.6059C41.8566 24.6641 42.0252 24.6852 42.192 24.6676C42.5317 24.6374 42.8606 24.5321 43.1546 24.3591C43.4486 24.1861 43.7005 23.9499 43.892 23.6676L44.262 23.2376C44.262 23.3376 44.192 23.5976 44.192 23.5976C44.1814 23.7316 44.2001 23.8663 44.2466 23.9924C44.2931 24.1185 44.3664 24.233 44.4615 24.3281C44.5565 24.4231 44.6711 24.4965 44.7972 24.543C44.9233 24.5895 45.058 24.6082 45.192 24.5976C45.4961 24.6045 45.7938 24.5099 46.0383 24.3288C46.2827 24.1478 46.4599 23.8905 46.542 23.5976L46.6119 23.1676H46.312L46.252 23.5976ZM161.223 6.13757C162.114 5.78704 163.056 5.58113 164.013 5.52759C165.513 5.52759 166.703 6.01758 166.703 7.70758V11.7976H165.233V7.94757C165.243 7.78951 165.218 7.63114 165.16 7.48389C165.101 7.33663 165.011 7.20418 164.895 7.09607C164.779 6.98796 164.641 6.90692 164.49 6.85876C164.339 6.81061 164.18 6.79651 164.023 6.81757C163.596 6.83214 163.176 6.92363 162.783 7.08759V7.3476V11.7976H161.313V6.99762C161.299 6.7095 161.269 6.42234 161.223 6.13757ZM162.972 17.4076L162.902 17.2776L161.652 15.0076H160.822V18.0676H161.372V15.6076L161.432 15.7176L162.562 17.7176C162.621 17.8339 162.711 17.9314 162.822 17.9986C162.934 18.0658 163.062 18.1001 163.192 18.0976C163.305 18.0963 163.416 18.076 163.522 18.0376V15.0376H162.972V17.4076ZM152.152 17.9776L153.422 14.9776H153.952L155.162 17.9776H154.532L154.232 17.2076H153.052L152.752 17.9776H152.152ZM153.652 15.7776L153.252 16.7776H154.052L153.652 15.7776ZM132.982 18.0376H133.542V16.6776H134.562V16.2176H133.542V15.4676H134.762V14.9876H132.982V18.0376ZM157.443 17.9776L158.703 14.9776H159.233L160.453 17.9776H159.823L159.523 17.2076H158.343L158.043 17.9776H157.443ZM158.943 15.7776L158.543 16.7776H159.343L158.943 15.7776ZM156.042 14.9876H155.482V18.0376H157.302V17.5576H156.042V14.9876ZM69.8123 23.5064C69.9624 23.3943 70.1453 23.3349 70.3326 23.3375C70.7026 23.3375 71.0026 23.5575 70.9326 23.9575C70.8626 24.3575 70.5226 25.0175 69.0726 25.6675L68.9727 25.5075C69.3932 25.3022 69.7418 24.9745 69.9727 24.5675C69.9015 24.5588 69.8327 24.5362 69.7704 24.5008C69.7082 24.4653 69.6535 24.4178 69.6098 24.361C69.5661 24.3042 69.534 24.2393 69.5156 24.17C69.4972 24.1007 69.4928 24.0285 69.5026 23.9575C69.5533 23.7771 69.6622 23.6186 69.8123 23.5064ZM68.3535 23.5976C68.3278 23.7122 68.2626 23.814 68.1694 23.8853C68.0761 23.9566 67.9608 23.9928 67.8435 23.9876C67.7919 23.9928 67.7397 23.9861 67.6911 23.968C67.6425 23.95 67.5986 23.921 67.5629 23.8833C67.5272 23.8457 67.5005 23.8003 67.485 23.7508C67.4696 23.7013 67.4656 23.6489 67.4735 23.5976L68.1535 19.4476H66.9935L66.4735 22.5676L66.0735 23.0176C65.5335 23.6476 65.1335 23.8876 64.7935 23.8876C64.7212 23.8949 64.6481 23.8854 64.5801 23.8597C64.5121 23.834 64.451 23.7929 64.4016 23.7396C64.3521 23.6863 64.3158 23.6222 64.2953 23.5525C64.2748 23.4827 64.2708 23.4092 64.2835 23.3376L64.7635 20.3376C64.7776 20.2028 64.7615 20.0666 64.7162 19.9388C64.671 19.8111 64.5978 19.695 64.502 19.5992C64.4061 19.5034 64.29 19.4301 64.1623 19.3849C64.0345 19.3396 63.8983 19.3235 63.7635 19.3376C63.4594 19.3308 63.1617 19.4254 62.9172 19.6064C62.6728 19.7875 62.4956 20.0447 62.4135 20.3376L62.3535 20.7676H62.6535L62.7235 20.3376C62.7489 20.2248 62.8126 20.1244 62.9037 20.0532C62.9949 19.9821 63.1079 19.9448 63.2235 19.9476C63.2751 19.9445 63.3266 19.9526 63.3748 19.9713C63.423 19.9899 63.4666 20.0188 63.5026 20.0558C63.5387 20.0927 63.5663 20.1371 63.5837 20.1857C63.6011 20.2343 63.6079 20.2861 63.6035 20.3376L63.1035 23.4076C63.0785 23.5728 63.0914 23.7414 63.1413 23.9008C63.1912 24.0603 63.2767 24.2062 63.3914 24.3277C63.5061 24.4491 63.6469 24.5429 63.8032 24.6018C63.9595 24.6607 64.1272 24.6832 64.2935 24.6676C64.6333 24.6374 64.9621 24.5321 65.2561 24.3591C65.5501 24.1861 65.802 23.9499 65.9935 23.6676L66.3635 23.2376C66.3635 23.3376 66.2935 23.5976 66.2935 23.5976C66.283 23.7316 66.3016 23.8663 66.3481 23.9924C66.3947 24.1185 66.468 24.233 66.563 24.3281C66.6581 24.4231 66.7726 24.4965 66.8987 24.543C67.0248 24.5895 67.1595 24.6082 67.2935 24.5976C67.5976 24.6045 67.8953 24.5099 68.1398 24.3288C68.3842 24.1478 68.5614 23.8905 68.6435 23.5976L68.7135 23.1676H68.4035L68.3535 23.5976ZM83.3496 23.9259C83.4406 23.8568 83.5052 23.7585 83.5325 23.6476L83.6025 23.1676H83.8925L83.8225 23.5976C83.746 23.8898 83.573 24.1475 83.3315 24.329C83.0901 24.5105 82.7944 24.6052 82.4925 24.5976C82.3581 24.6099 82.2227 24.5925 82.0958 24.5466C81.9688 24.5007 81.8536 24.4274 81.7582 24.332C81.6628 24.2365 81.5894 24.1213 81.5435 23.9944C81.4976 23.8675 81.4802 23.732 81.4925 23.5976L82.0025 20.4576C82.0117 20.3924 82.0061 20.3259 81.9862 20.2632C81.9663 20.2004 81.9325 20.1429 81.8874 20.0949C81.8423 20.0469 81.787 20.0097 81.7256 19.9859C81.6642 19.9621 81.5982 19.9524 81.5325 19.9576C81.1925 19.9576 80.8125 20.2676 80.3625 20.7176L80.1025 20.9976L79.5325 24.4576H78.3625L79.0225 20.4576C79.032 20.3914 79.0262 20.3241 79.0057 20.2605C78.9853 20.1969 78.9506 20.1388 78.9044 20.0906C78.8581 20.0424 78.8015 20.0054 78.7388 19.9824C78.6761 19.9593 78.609 19.9508 78.5425 19.9576C78.08 20.07 77.6703 20.3384 77.3825 20.7176L77.1325 20.9976L76.5625 24.4576H75.3925L76.0625 20.3476C76.0687 20.2957 76.0632 20.2432 76.0464 20.1937C76.0297 20.1443 76.0021 20.0992 75.9656 20.0618C75.9292 20.0244 75.8849 19.9957 75.8359 19.9777C75.7869 19.9596 75.7345 19.9527 75.6825 19.9576C75.5669 19.9547 75.454 19.9921 75.3628 20.0632C75.2716 20.1343 75.2079 20.2348 75.1825 20.3476L75.1125 20.7776H74.8125L74.8825 20.3476C74.9661 20.0556 75.1437 19.7993 75.3878 19.6185C75.6319 19.4377 75.9288 19.3425 76.2325 19.3476C76.3669 19.3353 76.5024 19.3527 76.6293 19.3986C76.7562 19.4445 76.8714 19.5178 76.9669 19.6132C77.0623 19.7086 77.1356 19.8239 77.1815 19.9508C77.2274 20.0777 77.2448 20.2132 77.2325 20.3476L77.5825 19.9976C77.957 19.5807 78.4746 19.3201 79.0325 19.2676C79.1823 19.2593 79.3322 19.282 79.4728 19.3343C79.6135 19.3867 79.7418 19.4674 79.8497 19.5716C79.9577 19.6758 80.043 19.8012 80.1002 19.9399C80.1575 20.0786 80.1855 20.2275 80.1825 20.3776L80.5825 19.9776C80.9617 19.5756 81.4728 19.3236 82.0225 19.2676C82.1812 19.2508 82.3415 19.2705 82.4915 19.325C82.6414 19.3795 82.7769 19.4674 82.8878 19.5821C82.9986 19.6969 83.0818 19.8353 83.1312 19.987C83.1805 20.1387 83.1946 20.2996 83.1725 20.4576L82.6425 23.6476C82.6395 23.6991 82.6475 23.7508 82.6662 23.7989C82.6849 23.8471 82.7137 23.8907 82.7507 23.9268C82.7877 23.9628 82.832 23.9905 82.8806 24.0079C82.9293 24.0253 82.9811 24.032 83.0325 24.0276C83.1468 24.0309 83.2586 23.995 83.3496 23.9259ZM60.6036 18.2476H59.4336L59.2436 19.4976H58.0236L57.9336 19.9776H59.1536L58.5636 23.6476C58.5495 23.7824 58.5656 23.9186 58.6108 24.0464C58.6561 24.1741 58.7294 24.2902 58.8252 24.386C58.921 24.4819 59.037 24.5551 59.1648 24.6003C59.2926 24.6456 59.4288 24.6617 59.5636 24.6476C59.8677 24.6544 60.1655 24.5598 60.4099 24.3788C60.6543 24.1977 60.8316 23.9405 60.9136 23.6476L60.9736 23.2176H60.7036L60.6336 23.6476C60.608 23.7595 60.5439 23.8588 60.4525 23.9282C60.3611 23.9977 60.2483 24.0328 60.1336 24.0276C60.0826 24.0322 60.0311 24.0255 59.9829 24.0081C59.9347 23.9906 59.891 23.9628 59.8547 23.9265C59.8185 23.8903 59.7906 23.8465 59.7731 23.7983C59.7557 23.7501 59.749 23.6986 59.7536 23.6476L60.3536 19.9776H61.9536L62.0336 19.4976H60.4436L60.6036 18.2476ZM130.475 15.0332C130.66 14.9535 130.862 14.9174 131.063 14.9276C131.266 14.9166 131.469 14.9522 131.657 15.032C131.844 15.1117 132.01 15.2334 132.143 15.3876C132.402 15.7016 132.534 16.1012 132.513 16.5076C132.528 16.9131 132.396 17.3104 132.143 17.6276C132.008 17.7777 131.84 17.8959 131.654 17.9737C131.467 18.0515 131.265 18.087 131.063 18.0776C130.864 18.0868 130.665 18.0512 130.482 17.9733C130.299 17.8954 130.135 17.7772 130.003 17.6276C129.743 17.314 129.607 16.915 129.623 16.5076C129.602 16.1012 129.734 15.7016 129.993 15.3876C130.125 15.2342 130.289 15.113 130.475 15.0332ZM131.437 17.508C131.551 17.4487 131.649 17.3628 131.723 17.2576C131.848 17.0271 131.913 16.7694 131.913 16.5076C131.913 16.2458 131.848 15.988 131.723 15.7576C131.649 15.6524 131.551 15.5665 131.437 15.5072C131.323 15.4479 131.197 15.4169 131.068 15.4169C130.94 15.4169 130.813 15.4479 130.699 15.5072C130.585 15.5665 130.487 15.6524 130.413 15.7576C130.289 15.988 130.224 16.2458 130.224 16.5076C130.224 16.7694 130.289 17.0271 130.413 17.2576C130.487 17.3628 130.585 17.4487 130.699 17.508C130.813 17.5673 130.94 17.5983 131.068 17.5983C131.197 17.5983 131.323 17.5673 131.437 17.508ZM54.2528 23.6476C54.229 23.7604 54.1654 23.8609 54.0736 23.9307C53.9818 24.0005 53.8679 24.0349 53.7528 24.0276C53.7021 24.0325 53.651 24.0259 53.6032 24.0084C53.5554 23.9908 53.5122 23.9628 53.4767 23.9263C53.4412 23.8899 53.4143 23.8459 53.3981 23.7977C53.3818 23.7494 53.3766 23.6981 53.3828 23.6476L54.0628 19.4876H52.8928L52.2128 23.6476C52.2005 23.782 52.2179 23.9175 52.2638 24.0444C52.3097 24.1713 52.383 24.2865 52.4784 24.382C52.5739 24.4774 52.6891 24.5507 52.816 24.5966C52.9429 24.6425 53.0784 24.6599 53.2128 24.6476C53.5169 24.6544 53.8146 24.5598 54.0591 24.3788C54.3035 24.1977 54.4807 23.9405 54.5628 23.6476L54.6328 23.2176H54.3228L54.2528 23.6476ZM90.0548 23.9268C90.1475 23.8578 90.2139 23.7593 90.2433 23.6476L90.2234 23.2676H90.5233L90.4533 23.6976C90.3732 23.9897 90.1979 24.2467 89.9552 24.4279C89.7124 24.609 89.4161 24.7039 89.1133 24.6976C88.9789 24.7099 88.8435 24.6925 88.7166 24.6465C88.5897 24.6006 88.4744 24.5274 88.379 24.4319C88.2836 24.3365 88.2103 24.2213 88.1644 24.0944C88.1185 23.9674 88.101 23.832 88.1133 23.6976C87.9085 23.9827 87.6441 24.2198 87.3384 24.3925C87.0328 24.5651 86.6933 24.6692 86.3434 24.6976C85.1734 24.6976 84.4533 23.4776 84.6833 21.9876C84.8208 21.1227 85.2731 20.3392 85.9533 19.7876C86.1089 19.6489 86.2953 19.5494 86.497 19.4972C86.6988 19.445 86.91 19.4417 87.1133 19.4876C87.269 19.5273 87.4149 19.5982 87.5421 19.6962C87.6694 19.7942 87.7753 19.9172 87.8534 20.0576C87.8811 20.0932 87.9015 20.134 87.9134 20.1776C87.9976 20.4028 88.0514 20.6381 88.0733 20.8776C88.086 21.1798 88.0591 21.4824 87.9933 21.7776C88.0028 21.8271 88.0028 21.8781 87.9933 21.9276C87.9617 22.0535 87.9216 22.1771 87.8733 22.2976C87.8615 22.3252 87.845 22.3497 87.8294 22.3729C87.8054 22.4086 87.7834 22.4413 87.7834 22.4776C87.7146 22.6135 87.6125 22.7298 87.4865 22.8155C87.3606 22.9012 87.215 22.9535 87.0633 22.9676C86.9076 22.9575 86.7615 22.8892 86.654 22.7761C86.5465 22.6631 86.4856 22.5136 86.4834 22.3576C86.4784 22.3144 86.4784 22.2708 86.4834 22.2276V22.1776C86.4735 22.1113 86.4735 22.0439 86.4834 21.9776C86.4981 21.7337 86.5952 21.5019 86.7586 21.3203C86.9221 21.1387 87.1423 21.0179 87.3833 20.9776C87.4696 20.9788 87.5543 21.0001 87.6308 21.0401C87.7072 21.0801 87.7732 21.1374 87.8233 21.2076V21.0476C87.7833 20.6976 87.6433 20.2576 87.2633 20.2576C86.8833 20.2576 86.1334 20.5776 85.7934 21.8176V21.9776C85.5934 23.0876 86.1233 23.9776 86.9433 23.9776C87.2183 23.9621 87.4853 23.8791 87.7207 23.7361C87.9561 23.5932 88.1528 23.3945 88.2934 23.1576L88.4533 22.0676C88.5133 21.8476 88.8233 19.7576 88.8233 19.7576C88.8625 19.6148 88.9472 19.4888 89.0645 19.3986C89.1818 19.3083 89.3254 19.2588 89.4734 19.2576C89.8134 19.2576 90.0334 19.4976 89.9834 19.7576L89.3534 23.6476C89.3488 23.6986 89.3554 23.7501 89.3729 23.7983C89.3904 23.8465 89.4182 23.8903 89.4544 23.9265C89.4907 23.9628 89.5345 23.9906 89.5827 24.0081C89.6309 24.0255 89.6823 24.0322 89.7334 24.0276C89.8489 24.0314 89.9622 23.9959 90.0548 23.9268ZM50.8109 19.4799C51.0149 19.3536 51.2445 19.2743 51.483 19.2477C51.5865 19.2289 51.6929 19.2351 51.7935 19.2658C51.894 19.2966 51.9858 19.3508 52.0612 19.4242C52.1365 19.4976 52.1932 19.588 52.2266 19.6877C52.2599 19.7874 52.269 19.8937 52.2529 19.9977C52.1906 20.2121 52.0582 20.3994 51.877 20.5299C51.6958 20.6604 51.4761 20.7265 51.2529 20.7176C51.1056 20.7304 50.958 20.6956 50.832 20.6181C50.7059 20.5407 50.6081 20.4249 50.5529 20.2876L49.5529 21.4076L49.033 24.5176H47.8729L48.533 20.4076C48.5408 20.3563 48.5369 20.3039 48.5214 20.2544C48.5059 20.2049 48.4793 20.1596 48.4435 20.1219C48.4078 20.0843 48.364 20.0553 48.3154 20.0372C48.2667 20.0191 48.2146 20.0124 48.163 20.0176C48.0474 20.0148 47.9344 20.0521 47.8432 20.1232C47.752 20.1943 47.6884 20.2948 47.663 20.4076L47.593 20.8376H47.293L47.353 20.4076C47.435 20.1147 47.6123 19.8575 47.8567 19.6764C48.1011 19.4954 48.3988 19.4008 48.7029 19.4076C48.8373 19.3953 48.9728 19.4127 49.0997 19.4586C49.2266 19.5046 49.3419 19.5778 49.4373 19.6732C49.5327 19.7687 49.606 19.8839 49.6519 20.0108C49.6978 20.1377 49.7152 20.2732 49.7029 20.4076L49.6229 20.6877L50.3029 19.9776C50.4333 19.7762 50.6068 19.6061 50.8109 19.4799ZM97.1426 23.5976C97.1172 23.7104 97.0534 23.8109 96.9623 23.882C96.8711 23.9531 96.7582 23.9904 96.6426 23.9876C96.591 23.9928 96.5388 23.9861 96.4902 23.968C96.4415 23.9499 96.3977 23.9209 96.3619 23.8833C96.3262 23.8456 96.2996 23.8003 96.2841 23.7508C96.2686 23.7013 96.2647 23.6489 96.2726 23.5976L96.9526 19.4476H95.7826L95.2726 22.5675L94.8625 23.0176C94.3225 23.6476 93.9226 23.8876 93.5926 23.8876C93.5203 23.8949 93.4472 23.8854 93.3792 23.8597C93.3112 23.834 93.2501 23.7928 93.2007 23.7395C93.1513 23.6862 93.1149 23.6222 93.0944 23.5524C93.0739 23.4827 93.0698 23.4091 93.0826 23.3376L93.5626 20.3376C93.5749 20.2032 93.5574 20.0678 93.5115 19.9408C93.4656 19.8139 93.3924 19.6986 93.2969 19.6032C93.2015 19.5078 93.0863 19.4345 92.9594 19.3886C92.8324 19.3427 92.697 19.3253 92.5626 19.3376C92.2585 19.3307 91.9607 19.4253 91.7163 19.6064C91.4719 19.7874 91.2947 20.0447 91.2126 20.3376L91.1426 20.7676H91.4526L91.5226 20.3376C91.548 20.2248 91.6117 20.1243 91.7028 20.0532C91.794 19.9821 91.907 19.9447 92.0226 19.9476C92.0738 19.9443 92.125 19.9523 92.1728 19.9711C92.2205 19.9898 92.2636 20.0187 92.2989 20.056C92.3342 20.0932 92.3609 20.1377 92.3771 20.1863C92.3933 20.235 92.3985 20.2866 92.3926 20.3376L91.9026 23.3976C91.8773 23.5636 91.8903 23.7333 91.9407 23.8935C91.9912 24.0538 92.0776 24.2003 92.1935 24.3219C92.3093 24.4436 92.4515 24.5371 92.6091 24.5953C92.7667 24.6534 92.9355 24.6748 93.1026 24.6576C93.441 24.6273 93.7683 24.5219 94.0607 24.3489C94.3531 24.1758 94.6032 23.9396 94.7926 23.6576L95.1725 23.2276L95.1026 23.5876C95.0903 23.722 95.1077 23.8574 95.1536 23.9844C95.1995 24.1113 95.2728 24.2265 95.3682 24.3219C95.4637 24.4174 95.5789 24.4906 95.7058 24.5365C95.8327 24.5824 95.9682 24.5999 96.1026 24.5876C96.4067 24.5944 96.7044 24.4998 96.9489 24.3188C97.1933 24.1377 97.3705 23.8805 97.4526 23.5876L97.5226 23.1576H97.2126L97.1426 23.5976ZM125.19 23.9259C125.281 23.8568 125.345 23.7585 125.372 23.6476L125.342 23.2676H125.632L125.562 23.6976C125.486 23.9898 125.313 24.2476 125.072 24.4291C124.83 24.6106 124.534 24.7052 124.233 24.6976C124.098 24.7117 123.961 24.6956 123.834 24.6503C123.706 24.6051 123.59 24.5319 123.494 24.436C123.398 24.3402 123.325 24.2241 123.28 24.0964C123.235 23.9686 123.218 23.8324 123.233 23.6976C123.028 23.9827 122.763 24.2198 122.458 24.3925C122.152 24.5651 121.812 24.6692 121.462 24.6976C120.292 24.6976 119.572 23.4776 119.802 21.9876C119.94 21.1227 120.392 20.3392 121.072 19.7876C121.226 19.6491 121.411 19.5495 121.611 19.4973C121.811 19.445 122.021 19.4418 122.223 19.4876C122.38 19.5255 122.528 19.5957 122.657 19.6938C122.786 19.7919 122.894 19.9158 122.973 20.0576L123.033 20.1776C123.117 20.4028 123.171 20.6381 123.192 20.8776C123.2 21.1796 123.173 21.4816 123.112 21.7776V21.9276C123.081 22.0535 123.041 22.1771 122.992 22.2976C122.962 22.3676 122.902 22.4776 122.902 22.4776C122.837 22.614 122.737 22.7308 122.613 22.8168C122.488 22.9027 122.343 22.9547 122.192 22.9676C122.037 22.9575 121.891 22.8892 121.783 22.7761C121.676 22.6631 121.615 22.5136 121.612 22.3576C121.607 22.3144 121.607 22.2708 121.612 22.2276V22.1776C121.607 22.111 121.607 22.0442 121.612 21.9776C121.631 21.7334 121.731 21.5024 121.896 21.3213C122.061 21.1402 122.281 21.0192 122.522 20.9776C122.608 20.9779 122.691 20.999 122.766 21.0391C122.841 21.0792 122.905 21.137 122.952 21.2076V21.0476C122.912 20.6976 122.772 20.2576 122.392 20.2576C122.012 20.2576 121.252 20.5776 120.922 21.8176C120.917 21.8708 120.917 21.9244 120.922 21.9776C120.732 23.0876 121.262 23.9776 122.082 23.9776C122.356 23.9613 122.621 23.878 122.855 23.735C123.089 23.592 123.283 23.3937 123.422 23.1576L123.592 22.0676C123.652 21.8476 123.962 19.7576 123.962 19.7576C124 19.614 124.084 19.487 124.202 19.3965C124.32 19.3061 124.464 19.2571 124.612 19.2576C124.942 19.2576 125.172 19.4976 125.122 19.7576L124.483 23.6476C124.479 23.6992 124.487 23.7508 124.506 23.799C124.525 23.8471 124.554 23.8907 124.591 23.9268C124.628 23.9628 124.672 23.9905 124.721 24.0079C124.769 24.0253 124.821 24.032 124.872 24.0276C124.987 24.0309 125.099 23.995 125.19 23.9259ZM131.052 7.70758V11.7976H129.592V7.94757C129.602 7.78951 129.577 7.63114 129.519 7.48389C129.461 7.33663 129.37 7.20418 129.255 7.09607C129.139 6.98796 129.001 6.90692 128.85 6.85876C128.699 6.81061 128.539 6.79651 128.382 6.81757C127.956 6.83214 127.536 6.92363 127.142 7.08759V7.3476V11.7976H125.672V6.99762C125.658 6.7095 125.628 6.42234 125.582 6.13757C126.474 5.78704 127.415 5.58113 128.372 5.52759C129.872 5.52759 131.052 6.01758 131.052 7.70758ZM119.192 19.2476C118.953 19.2736 118.724 19.3526 118.519 19.4789C118.315 19.6052 118.142 19.7756 118.012 19.9776L117.332 20.6876V20.3976C117.343 20.2636 117.324 20.1289 117.277 20.0028C117.231 19.8767 117.158 19.7621 117.063 19.6671C116.968 19.572 116.853 19.4987 116.727 19.4522C116.601 19.4057 116.466 19.387 116.332 19.3976C116.028 19.3907 115.73 19.4853 115.486 19.6664C115.241 19.8474 115.064 20.1047 114.982 20.3976L114.912 20.8276H115.222L115.292 20.3976C115.318 20.2848 115.381 20.1843 115.472 20.1132C115.564 20.0421 115.677 20.0047 115.792 20.0075C115.844 20.0024 115.896 20.0091 115.945 20.0272C115.993 20.0453 116.037 20.0742 116.073 20.1119C116.108 20.1495 116.135 20.1948 116.151 20.2444C116.166 20.2939 116.17 20.3463 116.162 20.3976L115.492 24.5075H116.702L117.212 21.3976L118.212 20.2776C118.267 20.4148 118.365 20.5306 118.491 20.6081C118.617 20.6855 118.765 20.7204 118.912 20.7076C119.135 20.7164 119.355 20.6504 119.536 20.5199C119.717 20.3894 119.85 20.202 119.912 19.9876C119.923 19.8895 119.912 19.7904 119.879 19.6971C119.847 19.6039 119.795 19.5188 119.726 19.4482C119.657 19.3775 119.574 19.3229 119.482 19.2882C119.389 19.2535 119.29 19.2397 119.192 19.2476ZM111.772 23.9676C112.492 23.9576 113.272 23.2276 113.632 22.1576C113.779 21.7602 113.827 21.3329 113.771 20.9129C113.715 20.4928 113.558 20.0928 113.312 19.7476C113.593 20.0274 113.802 20.3706 113.922 20.7483C114.042 21.126 114.07 21.5271 114.002 21.9176C113.913 22.6212 113.586 23.273 113.074 23.7643C112.563 24.2557 111.899 24.5568 111.192 24.6176C110.869 24.6077 110.552 24.5248 110.265 24.3749C109.979 24.2251 109.73 24.0122 109.538 23.7524C109.345 23.4925 109.214 23.1924 109.154 22.8746C109.094 22.5568 109.107 22.2296 109.192 21.9176C109.285 21.3628 109.518 20.8407 109.867 20.4C110.217 19.9593 110.673 19.6145 111.192 19.3976C111.339 19.3386 111.497 19.31 111.656 19.3135C111.815 19.3169 111.971 19.3524 112.116 19.4178C112.261 19.4831 112.391 19.577 112.498 19.6938C112.606 19.8106 112.689 19.948 112.742 20.0976C112.821 20.3267 112.868 20.5656 112.882 20.8076C112.897 20.9639 112.897 21.1212 112.882 21.2776V21.5976L112.822 21.8576C112.766 22.06 112.686 22.2548 112.582 22.4376C112.561 22.4725 112.538 22.5059 112.512 22.5376C112.393 22.6935 112.234 22.8144 112.052 22.8876H111.992H111.872H111.732H111.602C111.479 22.7939 111.389 22.6647 111.342 22.5176C111.338 22.4677 111.338 22.4175 111.342 22.3676V22.2776C111.332 22.1811 111.332 22.084 111.342 21.9876C111.362 21.7677 111.443 21.5577 111.575 21.3811C111.708 21.2045 111.887 21.0683 112.092 20.9876H112.262C112.348 20.9889 112.432 21.0116 112.507 21.0534C112.582 21.0953 112.646 21.1552 112.692 21.2276C112.672 20.4976 112.372 20.2776 112.112 20.2776C111.888 20.2951 111.671 20.3671 111.481 20.4873C111.291 20.6076 111.134 20.7725 111.022 20.9676C110.819 21.2697 110.68 21.6099 110.612 21.9676C110.402 23.0476 110.912 23.9676 111.692 23.9676C111.718 23.9725 111.746 23.9725 111.772 23.9676ZM102.372 19.2476C102.134 19.2757 101.905 19.3555 101.701 19.4816C101.497 19.6078 101.323 19.7771 101.192 19.9776L100.512 20.6876L100.572 20.3976C100.581 20.264 100.561 20.13 100.514 20.0047C100.467 19.8794 100.394 19.7655 100.299 19.6709C100.204 19.5762 100.09 19.5028 99.965 19.4557C99.8396 19.4086 99.7057 19.3888 99.5721 19.3976C99.2693 19.3913 98.973 19.4862 98.7303 19.6674C98.4875 19.8485 98.3122 20.1055 98.2321 20.3976L98.1621 20.8276H98.4721L98.5321 20.3976C98.5608 20.2866 98.6253 20.1881 98.7158 20.1176C98.8062 20.047 98.9174 20.0084 99.0321 20.0076C99.0841 20.0027 99.1365 20.0096 99.1855 20.0277C99.2345 20.0457 99.2788 20.0744 99.3152 20.1118C99.3517 20.1492 99.3793 20.1943 99.3961 20.2437C99.4128 20.2932 99.4183 20.3458 99.4121 20.3976L98.7021 24.5076H99.8721L100.382 21.3976L101.382 20.2776C101.435 20.414 101.531 20.5296 101.656 20.6071C101.78 20.6845 101.926 20.7198 102.072 20.7076C102.295 20.7165 102.515 20.6504 102.696 20.5199C102.877 20.3894 103.01 20.2021 103.072 19.9876C103.084 19.891 103.075 19.7929 103.044 19.7004C103.014 19.6079 102.964 19.5233 102.897 19.4525C102.83 19.3818 102.748 19.3268 102.657 19.2913C102.567 19.2559 102.469 19.241 102.372 19.2476ZM104.973 23.9307C105.065 23.8609 105.129 23.7604 105.152 23.6476L105.222 23.2176H105.532L105.462 23.6476C105.38 23.9405 105.203 24.1977 104.959 24.3788C104.714 24.5598 104.416 24.6544 104.112 24.6476C103.978 24.6617 103.841 24.6456 103.714 24.6003C103.586 24.5551 103.47 24.4819 103.374 24.386C103.278 24.2902 103.205 24.1741 103.16 24.0464C103.114 23.9186 103.098 23.7824 103.112 23.6476L103.792 19.4876H104.962L104.282 23.6476C104.232 23.8676 104.432 24.0276 104.652 24.0276C104.768 24.0349 104.881 24.0005 104.973 23.9307Z" fill="white"/>
</svg>
