<svg width="100" height="58" viewBox="0 0 100 58" fill="none" xmlns="http://www.w3.org/2000/svg">
<path opacity="0.9" fill-rule="evenodd" clip-rule="evenodd" d="M0 14.6154L40.0698 0L48.7214 23.7994L8.64953 38.4085L0 14.6154ZM18.5853 24.8613L20.347 26.9789L22.8231 26.087L14.5486 16.4812L12.2757 17.3102L12.0997 29.9843L14.5716 29.0818V26.3304L18.5853 24.8613ZM19.9427 14.5126L23.9878 25.6483L31.437 22.9326L30.6892 20.8633L25.6323 22.708L22.3371 13.6332L19.9427 14.5126ZM30.995 10.4789L28.5964 11.3582L32.6457 22.494L40.097 19.7782L39.3408 17.7089L34.2902 19.5516L30.995 10.4789ZM14.5532 24.0626L17.1424 23.116L14.5469 19.9736L14.5532 24.0626ZM45.2546 28.6746L88.3766 32.4522V32.448C91.6481 32.7455 94.6796 34.2937 96.8418 36.7713C99.004 39.2489 100.131 42.4656 99.9882 45.7535C99.8456 49.0415 98.4446 52.1481 96.076 54.4285C93.7075 56.7089 90.5534 57.9878 87.2684 57.9998C86.8955 57.9998 86.5247 57.9809 86.1477 57.9495L43.0237 54.1718C39.7648 53.8592 36.7501 52.3056 34.6012 49.8313C32.4523 47.357 31.3333 44.1508 31.4749 40.8741C31.6165 37.5975 33.0079 34.5002 35.3622 32.2212C37.7165 29.9423 40.8541 28.6555 44.1276 28.6263C44.4984 28.6263 44.8755 28.6452 45.2546 28.6746ZM43.0907 47.4097C45.7427 47.6406 47.6406 46.415 47.8376 44.205V44.2113C48.073 41.5041 46.0347 40.8515 44.3209 40.3028C43.0759 39.9043 42.0022 39.5605 42.0956 38.5238C42.1564 37.8291 42.8205 37.4136 43.8134 37.4996C44.9404 37.5962 45.5982 38.2678 45.5982 39.2017L48.0093 39.4116C48.1371 37.1596 46.5471 35.5331 44.0019 35.3233C41.6138 35.1092 39.8039 36.3475 39.6342 38.3076C39.3886 41.0271 41.4474 41.7271 43.1506 42.3062C44.3522 42.7148 45.3769 43.0632 45.2902 44.0182C45.2106 44.9165 44.4125 45.3173 43.2813 45.2208C42.037 45.1117 41.3122 44.2806 41.3122 43.0738L38.8885 42.8639C38.7733 45.3845 40.4114 47.1768 43.0907 47.4097ZM54.6834 48.4297C58.1378 48.7277 60.9218 46.3898 61.2256 42.9122V42.9185C61.5251 39.4451 59.202 36.6434 55.7371 36.3453C52.2723 36.0473 49.4862 38.379 49.1824 41.8566C48.8787 45.3341 51.2291 48.1317 54.6834 48.4297ZM71.68 43.1058C71.9842 42.6882 72.1594 42.1904 72.1836 41.674C72.3742 39.5186 71.0461 37.8396 68.5156 37.6193L63.5508 37.1869L62.516 48.9943L65.0612 49.2041L65.4341 44.9207L67.7237 45.1305C68.0953 45.1585 68.4414 45.33 68.6892 45.6088C68.937 45.8876 69.067 46.2519 69.0518 46.6248L69.1189 49.563L71.6473 49.7834L71.6096 46.501C71.6213 46.0283 71.5248 45.5592 71.3277 45.1296C71.1305 44.7 70.8379 44.3213 70.4721 44.0224C70.9557 43.842 71.3757 43.5233 71.68 43.1058ZM79.4924 40.7631L82.9824 41.0695L83.1814 38.8995L73.6835 38.06L73.495 40.2406L76.9786 40.5449L76.1407 50.1737L78.6545 50.4004L79.4924 40.7631ZM87.4004 51.3028C90.0503 51.5337 91.9503 50.3081 92.1452 48.0939H92.1473C92.3837 45.3913 90.3486 44.7379 88.6349 44.1877C87.3877 43.7873 86.3106 43.4415 86.4033 42.4001C86.464 41.7097 87.1281 41.2878 88.121 41.3801C89.248 41.4788 89.9058 42.1483 89.9058 43.0822L92.3169 43.2921C92.4468 41.0465 90.8568 39.4284 88.3095 39.2038C85.9214 38.996 84.1136 40.228 83.9418 42.1882C83.6962 44.9076 85.755 45.6083 87.4582 46.1881C88.6599 46.5971 89.6845 46.9458 89.5979 47.9008C89.5204 48.797 88.7222 49.1999 87.5889 49.1013C86.3467 48.9922 85.6219 48.1674 85.6219 46.9606L83.1961 46.7507C83.0809 49.2713 84.719 51.0657 87.4004 51.3028ZM55.5291 38.5304C53.5139 38.3541 51.9176 39.8799 51.7291 42.0982C51.5406 44.3166 52.8372 46.069 54.8608 46.2474C56.8844 46.4258 58.4912 44.9168 58.6797 42.7069C58.8682 40.4969 57.5527 38.7088 55.5291 38.5304ZM68.2036 39.7099L65.9139 39.5L65.627 42.741L67.9166 42.9509C69.0813 43.0475 69.6532 42.3212 69.7328 41.4542C69.8124 40.5873 69.3641 39.8065 68.2036 39.7099Z" fill="white"/>
</svg>
