<svg width="118" height="26" viewBox="0 0 118 26" fill="none" xmlns="http://www.w3.org/2000/svg">
<path d="M95.3044 20.1441H94.0033V25.8722H95.3471V22.4013C95.3471 22.231 95.3897 22.0606 95.4537 21.9328C95.5177 21.7838 95.6244 21.656 95.731 21.5495C95.859 21.4431 95.987 21.3579 96.1576 21.294C96.3283 21.2301 96.4989 21.2088 96.6909 21.2088C96.9255 21.2088 97.1388 21.2514 97.3095 21.3366C97.4801 21.4218 97.6081 21.5708 97.6721 21.7625C97.7574 21.9541 97.8001 22.1884 97.8001 22.4865V25.8935H99.1439V22.38C99.1439 21.8477 99.0799 21.4218 98.9306 21.0811C98.7813 20.7404 98.568 20.4636 98.2693 20.2932C97.9707 20.1229 97.6081 20.0377 97.1815 20.0377C96.8829 20.0377 96.5842 20.1016 96.2856 20.2293C95.987 20.3571 95.7524 20.5274 95.5391 20.7404C95.4751 20.8043 95.4111 20.8894 95.3684 20.9746V20.1441H95.3044ZM68.1294 19.5905L64.1406 24.8927V25.8935H70.1558V24.5946H66.0604L70.0278 19.2498V18.2703H64.3966V19.5905H68.0868H68.1294ZM47.2469 22.4013C47.2683 22.2523 47.3109 22.1245 47.3749 21.9967C47.5029 21.7412 47.6735 21.5496 47.9295 21.4005C48.1855 21.2514 48.4841 21.1876 48.8254 21.1876C49.06 21.1876 49.2733 21.2301 49.4653 21.3366C49.6573 21.4431 49.8066 21.5708 49.9346 21.7412C50.0625 21.9115 50.1265 22.1032 50.1479 22.3374V22.4013H47.2469ZM46.1164 21.8477C45.9671 22.2097 45.9031 22.6355 45.9031 23.0827C45.9031 23.6577 46.0311 24.1474 46.2871 24.5946C46.543 25.0418 46.9056 25.3825 47.3749 25.638C47.8442 25.8935 48.3774 26.0213 48.9747 26.0213C49.252 26.0213 49.508 25.9787 49.7853 25.9148C50.0625 25.8509 50.3185 25.7445 50.5745 25.6167C50.8304 25.4889 51.0438 25.3399 51.2357 25.1482L50.5745 24.2326C50.3185 24.4668 50.0625 24.6159 49.8492 24.7011C49.6146 24.7862 49.38 24.8288 49.1027 24.8288C48.7187 24.8288 48.3774 24.7649 48.1001 24.5946C47.8228 24.4455 47.5882 24.2326 47.4389 23.9558C47.3323 23.7641 47.2683 23.5512 47.2469 23.3382H51.4704V22.8698C51.4704 22.4652 51.4277 22.0819 51.2997 21.7412C51.1717 21.4005 50.9798 21.1024 50.7451 20.8468C50.5105 20.5913 50.2119 20.3997 49.8919 20.2506C49.5719 20.1016 49.2093 20.0377 48.8254 20.0377C48.3988 20.0377 47.9935 20.1229 47.6522 20.2719C47.2896 20.421 46.991 20.6339 46.7137 20.9107C46.4577 21.1876 46.2444 21.507 46.1164 21.869M39.2907 18.2916H38.0108V25.9148H39.4187V22.955C39.4187 22.955 39.4187 22.742 39.4187 22.6355C39.4187 22.5291 39.4187 22.4013 39.3973 22.2523C39.3973 22.1032 39.376 21.9328 39.3547 21.7412C39.3547 21.5283 39.312 21.294 39.2907 20.9959C39.2907 20.8468 39.2693 20.6552 39.248 20.4636L43.3648 25.8935H44.6659V18.2703H43.2581V20.5487C43.2581 20.8681 43.2581 21.1663 43.2581 21.4431C43.2581 21.7199 43.2581 21.9967 43.2795 22.2523C43.2795 22.5078 43.3008 22.742 43.3221 22.9762C43.3221 23.2105 43.3648 23.4234 43.3861 23.6364C43.3861 23.7002 43.3861 23.7641 43.4075 23.828L39.2693 18.2703L39.2907 18.2916ZM29.4787 17.8657H28.1562V25.9148H29.5V22.4439C29.5 22.2735 29.5427 22.1032 29.6067 21.9754C29.6706 21.8264 29.7773 21.6986 29.884 21.5921C30.0119 21.4857 30.1399 21.4005 30.3106 21.3366C30.4812 21.2727 30.6518 21.2514 30.8438 21.2514C31.0785 21.2514 31.2918 21.294 31.4624 21.3792C31.633 21.4644 31.761 21.6134 31.8464 21.8051C31.9317 21.9967 31.9743 22.231 31.9743 22.5291V25.9361H33.3181V22.4226C33.3181 21.8903 33.2542 21.4644 33.1048 21.1237C32.9555 20.783 32.7422 20.5061 32.4436 20.3358C32.145 20.1654 31.7824 20.0803 31.3557 20.0803C31.0571 20.0803 30.7585 20.1441 30.4599 20.2719C30.1612 20.3997 29.9266 20.57 29.7133 20.783C29.6493 20.8468 29.5853 20.932 29.5427 20.9959V17.8657H29.4787ZM9.02278 22.4439C9.04411 22.2948 9.08677 22.1671 9.15076 22.0393C9.27874 21.7838 9.44939 21.5921 9.70535 21.4431C9.93999 21.294 10.2386 21.2301 10.6012 21.2301C10.8359 21.2301 11.0492 21.2727 11.2411 21.3792C11.4331 21.4857 11.5824 21.6134 11.7104 21.7838C11.8384 21.9541 11.9024 22.1458 11.9237 22.38V22.4439H9.02278ZM7.89226 21.8903C7.74295 22.2523 7.67896 22.6781 7.67896 23.1253C7.67896 23.7002 7.80694 24.19 8.06291 24.6372C8.31887 25.0844 8.68149 25.4251 9.15076 25.6806C9.62003 25.9361 10.1533 26.0639 10.7505 26.0639C11.0278 26.0639 11.3051 26.0213 11.5611 25.9574C11.8384 25.8935 12.0944 25.7871 12.3503 25.6593C12.6063 25.5315 12.8196 25.3825 13.0116 25.1908L12.3503 24.2752C12.0944 24.5094 11.8384 24.6585 11.6251 24.7437C11.3905 24.8288 11.1558 24.8714 10.8785 24.8714C10.4946 24.8714 10.1533 24.8075 9.87599 24.6372C9.57737 24.4881 9.36406 24.2752 9.21475 23.9984C9.1081 23.8067 9.06544 23.5938 9.02278 23.3808H13.2462V22.9124C13.2462 22.5078 13.2035 22.1245 13.0756 21.7838C12.9476 21.4431 12.7556 21.145 12.521 20.8894C12.2863 20.6339 12.009 20.4423 11.6678 20.2932C11.3478 20.1441 10.9852 20.0803 10.6012 20.0803C10.1746 20.0803 9.76934 20.1654 9.42806 20.3145C9.06544 20.4636 8.76681 20.6765 8.48952 20.9533C8.23355 21.2301 8.02025 21.5495 7.89226 21.9115M1.7491 18.3342H0.319957V25.9574H1.72777V22.8272H5.20463V25.9574H6.63377V18.3342H5.20463V21.4857H1.72777V18.3342H1.7491ZM6.76175 3.38575H10.5586V0.702703H0L1.27983 3.38575H3.7115V13.2023H6.74042V3.38575H6.76175ZM16.1258 7.32514H12.3077C12.329 7.21867 12.3717 7.09091 12.4143 7.00573C12.585 6.66503 12.8196 6.38821 13.1609 6.19656C13.4808 6.00491 13.8861 5.91974 14.3554 5.91974C14.6967 5.91974 14.9953 5.98362 15.2513 6.11138C15.5072 6.23915 15.7205 6.43079 15.8912 6.66503C16.0192 6.85668 16.1045 7.09091 16.1471 7.32514M18.7921 9.07125V8.30467C18.8348 7.62326 18.7495 6.98444 18.5148 6.38821C18.3015 5.81327 18.0029 5.30221 17.5763 4.87633C17.171 4.45045 16.7017 4.10975 16.1471 3.87551C15.5926 3.64128 14.974 3.51351 14.3127 3.51351C13.6088 3.51351 12.9689 3.64128 12.3717 3.87551C11.7744 4.10975 11.2838 4.47174 10.8359 4.91892C10.4093 5.36609 10.068 5.89844 9.83333 6.49468C9.5987 7.09091 9.47072 7.77232 9.47072 8.49632C9.47072 9.43325 9.68402 10.2637 10.1106 11.009C10.5372 11.733 11.1345 12.3079 11.9237 12.7338C12.6916 13.1597 13.6088 13.3726 14.654 13.3726C15.0806 13.3726 15.5072 13.3301 15.9552 13.2236C16.3818 13.1171 16.8084 12.9681 17.235 12.7764C17.6616 12.5635 18.0456 12.3079 18.4082 11.9885L17.0644 10.0934C16.7017 10.3702 16.3604 10.5831 16.0405 10.6896C15.7205 10.8174 15.3579 10.86 14.9526 10.86C14.3767 10.86 13.8648 10.7535 13.4382 10.5405C13.0116 10.3276 12.6916 10.0295 12.4783 9.64619C12.3717 9.47584 12.3077 9.2629 12.2437 9.07125H18.7495H18.7921ZM18.5575 22.9975C18.5575 23.3595 18.4935 23.679 18.3442 23.9345C18.2162 24.2113 18.0242 24.4242 17.7896 24.5733C17.555 24.7224 17.2777 24.8075 16.9577 24.8075C16.6377 24.8075 16.3818 24.7224 16.1258 24.5733C15.8912 24.4242 15.6992 24.2113 15.5712 23.9345C15.4432 23.6577 15.3792 23.3382 15.3792 22.9975C15.3792 22.6568 15.4432 22.3374 15.5712 22.0819C15.6992 21.8051 15.8912 21.6134 16.1258 21.4431C16.3604 21.294 16.6377 21.2088 16.9577 21.2088C17.2777 21.2088 17.555 21.294 17.7896 21.4431C18.0242 21.5921 18.2162 21.8051 18.3442 22.0819C18.4722 22.3587 18.5575 22.6568 18.5575 22.9975ZM18.4935 25.8935H19.8586V20.1654H18.5148V20.9746C18.4082 20.8043 18.2802 20.6552 18.1095 20.5274C17.9389 20.3784 17.7256 20.2506 17.4696 20.1654C17.235 20.0803 16.9577 20.0377 16.6804 20.0377C16.1685 20.0377 15.7205 20.1654 15.3366 20.421C14.9313 20.6765 14.6114 21.0385 14.398 21.4857C14.1634 21.9328 14.0568 22.4439 14.0568 23.0188C14.0568 23.5938 14.1847 24.1048 14.398 24.552C14.6327 24.9992 14.9313 25.3612 15.3153 25.6167C15.6992 25.8722 16.1258 26 16.5951 26C16.8724 26 17.1283 25.9574 17.3843 25.8722C17.6189 25.7871 17.8536 25.6593 18.0456 25.5315C18.2375 25.4038 18.3868 25.2547 18.5148 25.0844V25.8935H18.4935ZM21.2238 25.8935H22.5676V17.8231H21.2238V25.8935ZM24.6367 20.1654H23.5061V21.4005H24.6367V25.8935H25.9805V21.4005H27.239V20.1654H25.9805V18.6961H24.6367V20.1654ZM38.0535 13.2023L41.8077 0.702703H38.7787L36.923 7.23997C36.8377 7.53808 36.7737 7.79361 36.731 8.02785C36.6884 8.26208 36.6457 8.47502 36.6244 8.66667C36.6244 8.75184 36.6244 8.83702 36.603 8.94349C36.5604 8.75184 36.539 8.58149 36.4751 8.36855C36.3897 8.02785 36.2618 7.66585 36.1124 7.26126L34.2994 2.32105H31.8677L30.0119 7.26126C29.9053 7.60197 29.82 7.92138 29.7346 8.21949C29.6706 8.47502 29.628 8.73055 29.5853 9.02866C29.5427 8.75184 29.5 8.47502 29.436 8.1769C29.372 7.87879 29.2867 7.58067 29.2227 7.28256L27.3456 0.723997H24.2527L28.0069 13.2023H30.3959L32.9769 6.45209L35.7498 13.2023H38.0748H38.0535ZM48.7827 13.2023H51.6623V7.38903C51.6623 6.55856 51.5344 5.85586 51.2784 5.28092C51.0224 4.70598 50.6598 4.2588 50.1692 3.98198C49.6786 3.68387 49.0813 3.5561 48.3561 3.5561C47.8229 3.5561 47.3322 3.66257 46.863 3.87551C46.3937 4.08845 45.9884 4.36527 45.6471 4.72727C45.6045 4.76986 45.5618 4.83374 45.5192 4.87633V0H42.7249V13.2023H45.5832V7.51679C45.5832 7.28256 45.6258 7.09091 45.7111 6.89926C45.7965 6.70762 45.9244 6.53726 46.0738 6.38821C46.2231 6.23915 46.415 6.13268 46.6283 6.0475C46.8417 5.96233 47.0763 5.94103 47.3323 5.94103C47.6522 5.94103 47.9295 5.98362 48.1428 6.11138C48.3561 6.23915 48.5268 6.43079 48.6334 6.66503C48.7401 6.92056 48.8041 7.23997 48.8041 7.60197V13.181L48.7827 13.2023ZM53.2408 20.1441H51.8756L53.8167 25.8935H54.7552L56.0564 22.7207L57.4216 25.8935H58.3814L60.3225 20.1654H58.9573L57.7842 23.8706L56.5257 21.0172H55.7151L54.4566 23.9132L53.2834 20.1441H53.2408ZM60.0239 8.45373C60.0239 8.96478 59.9385 9.41196 59.7679 9.77396C59.5973 10.1572 59.3413 10.4341 59.0213 10.647C58.7014 10.86 58.3174 10.9451 57.8695 10.9451C57.4216 10.9451 57.0589 10.8387 56.7603 10.647C56.4404 10.4554 56.2057 10.1572 56.0137 9.77396C55.8431 9.39066 55.7578 8.96478 55.7578 8.45373C55.7578 7.94267 55.8431 7.4955 56.0137 7.1335C56.1844 6.7502 56.4404 6.47338 56.7603 6.26044C57.0803 6.0475 57.4429 5.94103 57.8695 5.94103C58.2961 5.94103 58.7014 6.0475 59.0213 6.26044C59.3413 6.47338 59.5973 6.7502 59.7679 7.1335C59.9385 7.51679 60.0239 7.94267 60.0239 8.45373ZM59.9385 13.2023H62.8395V3.72645H60.0025V4.89762C59.8319 4.66339 59.6399 4.45045 59.4053 4.2801C59.128 4.04586 58.7867 3.87551 58.4027 3.72645C58.0401 3.59869 57.6135 3.53481 57.1656 3.53481C56.3337 3.53481 55.6085 3.74775 54.9686 4.17363C54.3286 4.59951 53.8167 5.17445 53.4541 5.91974C53.0915 6.66503 52.8995 7.51679 52.8995 8.47502C52.8995 9.43325 53.0915 10.2637 53.4541 10.9877C53.8167 11.7117 54.3286 12.3079 54.9472 12.7338C55.5658 13.1597 56.291 13.3726 57.0803 13.3726C57.5069 13.3726 57.9122 13.3088 58.2961 13.181C58.68 13.0532 59.0213 12.8829 59.3413 12.6486C59.5759 12.4783 59.7679 12.2867 59.9385 12.0737V13.2236V13.2023ZM68.5347 6.21785H70.3691V3.72645H68.5347V1.34152H65.6764V3.72645H63.9913V6.21785H65.6764V13.2023H68.5347V6.21785ZM72.3955 22.4013C72.4382 22.2523 72.4595 22.1245 72.5235 21.9967C72.6515 21.7412 72.8221 21.5496 73.0781 21.4005C73.3127 21.2514 73.6327 21.1876 73.974 21.1876C74.2086 21.1876 74.4219 21.2301 74.6139 21.3366C74.8059 21.4431 74.9765 21.5708 75.0832 21.7412C75.2111 21.9115 75.2751 22.1032 75.2965 22.3374V22.4013H72.3955ZM71.8623 20.8681C71.6063 21.145 71.393 21.4644 71.265 21.8264C71.1157 22.1884 71.0517 22.6143 71.0517 23.0614C71.0517 23.6364 71.1797 24.1261 71.4357 24.5733C71.6916 25.0205 72.0542 25.3612 72.5235 25.6167C72.9928 25.8722 73.526 26 74.1233 26C74.4006 26 74.6565 25.9574 74.9338 25.8935C75.2111 25.8296 75.4671 25.7232 75.7231 25.5954C75.979 25.4677 76.1923 25.3186 76.3843 25.1269L75.7231 24.2113C75.4671 24.4455 75.2111 24.5946 74.9978 24.6798C74.7632 24.7649 74.5286 24.8075 74.2513 24.8075C73.8673 24.8075 73.526 24.7437 73.2487 24.5733C72.9714 24.4242 72.7368 24.2113 72.5875 23.9345C72.4808 23.7428 72.4168 23.5299 72.3955 23.317H76.6189V22.8485C76.6189 22.4439 76.5763 22.0606 76.4483 21.7199C76.3203 21.3792 76.1283 21.0811 75.8937 20.8256C75.6591 20.57 75.3605 20.3784 75.0405 20.2293C74.7205 20.0803 74.3579 20.0164 73.974 20.0164C73.5474 20.0164 73.1421 20.1016 72.7795 20.2506C72.4168 20.3997 72.1182 20.6126 71.8409 20.8894M77.7281 13.2023H80.4158V3.72645H77.5362V9.39066C77.5362 9.6249 77.4935 9.83784 77.4082 10.0508C77.3229 10.2424 77.2162 10.4128 77.0669 10.5618C76.9176 10.7109 76.7469 10.8174 76.5336 10.9025C76.3203 10.9877 76.107 11.0303 75.8511 11.0303C75.5098 11.0303 75.2325 10.9664 74.9978 10.7961C74.7632 10.647 74.5926 10.4341 74.4646 10.1572C74.3366 9.88043 74.2939 9.56102 74.2939 9.17772V3.72645H71.4143V9.58231C71.4143 10.3915 71.5423 11.0729 71.8196 11.6265C72.0969 12.2015 72.4595 12.6274 72.9714 12.9468C73.462 13.2449 74.0593 13.3939 74.7632 13.3939C75.2751 13.3939 75.7871 13.2875 76.235 13.0745C76.7043 12.8616 77.0882 12.5848 77.4295 12.2441C77.5148 12.1589 77.5788 12.0737 77.6428 11.9885L77.7281 13.2023ZM81.9089 23.0188C81.9089 23.3808 81.8449 23.7002 81.7169 23.9558C81.5889 24.2326 81.397 24.4455 81.1623 24.5946C80.9277 24.7437 80.6504 24.8288 80.3304 24.8288C80.0105 24.8288 79.7332 24.7437 79.4986 24.5946C79.2639 24.4455 79.0719 24.2326 78.944 23.9558C78.816 23.679 78.752 23.3595 78.752 23.0188C78.752 22.6781 78.816 22.3587 78.944 22.1032C79.0719 21.8264 79.2639 21.6347 79.4986 21.4644C79.7332 21.3153 80.0105 21.2301 80.3304 21.2301C80.6504 21.2301 80.9277 21.3153 81.1623 21.4644C81.397 21.6134 81.5889 21.8264 81.7169 22.1032C81.8449 22.38 81.9089 22.6781 81.9089 23.0188ZM81.8449 25.9148H83.2101V20.1867H81.8662V20.9959C81.7596 20.8256 81.6316 20.6765 81.461 20.5487C81.2903 20.3997 81.077 20.2719 80.821 20.1867C80.5864 20.1016 80.3091 20.059 80.0318 20.059C79.5199 20.059 79.0719 20.1867 78.688 20.4423C78.2827 20.6978 77.9628 21.0598 77.7495 21.507C77.5148 21.9541 77.4082 22.4652 77.4082 23.0401C77.4082 23.6151 77.5148 24.1261 77.7495 24.5733C77.9841 25.0205 78.2827 25.3825 78.688 25.638C79.0719 25.8935 79.4986 26.0213 79.9678 26.0213C80.2451 26.0213 80.5011 25.9787 80.7571 25.8935C80.9917 25.8084 81.2263 25.6806 81.4183 25.5528C81.6103 25.4251 81.7596 25.276 81.8876 25.1057V25.9148H81.8449ZM84.5752 25.9148H85.919V17.8444H84.5752V25.9148ZM88.2654 23.0188C88.2654 22.6781 88.3294 22.3587 88.4573 22.1032C88.5853 21.8264 88.7773 21.6347 89.0119 21.4644C89.2466 21.3153 89.5239 21.2301 89.8438 21.2301C90.1638 21.2301 90.4411 21.3153 90.6757 21.4644C90.9103 21.6134 91.1023 21.8264 91.2303 22.1032C91.3583 22.38 91.4223 22.6781 91.4223 23.0188C91.4223 23.3595 91.3583 23.7002 91.2303 23.9558C91.1023 24.2326 90.9103 24.4455 90.6757 24.5946C90.4411 24.7437 90.1638 24.8288 89.8438 24.8288C89.5239 24.8288 89.2466 24.7437 89.0119 24.5946C88.7773 24.4455 88.5853 24.2326 88.4573 23.9558C88.3294 23.679 88.2654 23.3595 88.2654 23.0188ZM87.2628 21.4857C87.0282 21.9328 86.9216 22.4439 86.9216 23.0188C86.9216 23.5938 87.0282 24.1048 87.2628 24.552C87.4975 24.9992 87.7961 25.3612 88.18 25.6167C88.564 25.8722 88.9906 26 89.4599 26C89.7372 26 89.9931 25.9574 90.2491 25.8722C90.4837 25.7871 90.7184 25.6593 90.9103 25.5315C91.1023 25.4038 91.2516 25.2547 91.3796 25.0844V25.8935H92.7448V20.1654H91.4009V20.9746C91.2943 20.8043 91.1663 20.6552 90.9957 20.5274C90.825 20.3784 90.6117 20.2506 90.3558 20.1654C90.1211 20.0803 89.8438 20.0377 89.5665 20.0377C89.0546 20.0377 88.6067 20.1654 88.2227 20.421C87.8174 20.6765 87.4975 21.0385 87.2842 21.4857M97.1815 6.92056C97.1815 7.45291 97.0962 7.92138 96.9255 8.36855C96.7549 8.81573 96.5203 9.19902 96.2216 9.51843C95.923 9.83784 95.5604 10.0934 95.1551 10.285C94.7498 10.4554 94.3019 10.5618 93.8113 10.5618C93.3207 10.5618 92.8727 10.4767 92.4675 10.285C92.0622 10.1147 91.6996 9.85913 91.3796 9.53972C91.081 9.22031 90.8464 8.83702 90.6757 8.38984C90.5051 7.94267 90.4411 7.45291 90.4411 6.94185C90.4411 6.43079 90.5264 5.94103 90.6757 5.49386C90.8464 5.04668 91.081 4.66339 91.3796 4.34398C91.6996 4.02457 92.0409 3.76904 92.4675 3.5774C92.8727 3.40704 93.3207 3.30057 93.8113 3.30057C94.3019 3.30057 94.7498 3.38575 95.1551 3.5774C95.5604 3.74775 95.923 4.00328 96.2216 4.34398C96.5203 4.66339 96.7549 5.04668 96.9255 5.49386C97.0962 5.94103 97.1815 6.4095 97.1815 6.94185M99.8051 9.51843C100.125 8.73055 100.274 7.85749 100.274 6.94185C100.274 6.02621 100.125 5.13186 99.8051 4.36527C99.4852 3.5774 99.0372 2.89599 98.4613 2.32105C97.8854 1.74611 97.1815 1.29894 96.4136 0.958231C95.6244 0.638821 94.7712 0.468468 93.8326 0.468468C92.8941 0.468468 92.0195 0.617527 91.2303 0.958231C90.4411 1.27764 89.7585 1.72482 89.1826 2.32105C88.6067 2.89599 88.1374 3.59869 87.8174 4.36527C87.4975 5.15315 87.3482 6.00491 87.3482 6.94185C87.3482 7.87879 87.5188 8.75184 87.8174 9.53972C88.1374 10.3276 88.5853 11.009 89.1826 11.5839C89.7585 12.1589 90.4624 12.6274 91.2303 12.9468C92.0195 13.2662 92.8941 13.4365 93.8326 13.4365C94.7712 13.4365 95.6244 13.2662 96.4136 12.9468C97.2028 12.6274 97.8854 12.1802 98.4613 11.5839C99.0372 11.009 99.4852 10.3063 99.8051 9.51843ZM102.088 21.4431C102.322 21.294 102.599 21.2088 102.919 21.2088C103.239 21.2088 103.517 21.294 103.751 21.4431C103.986 21.5921 104.178 21.8264 104.306 22.1032C104.434 22.38 104.498 22.6994 104.498 23.0614C104.498 23.4234 104.434 23.7428 104.306 24.0197C104.178 24.2965 103.986 24.5094 103.751 24.6798C103.517 24.8501 103.239 24.914 102.919 24.914C102.599 24.914 102.322 24.8288 102.088 24.6798C101.853 24.5307 101.661 24.2965 101.533 24.0197C101.405 23.7428 101.341 23.4234 101.341 23.0614C101.341 22.6994 101.405 22.38 101.533 22.1032C101.661 21.8264 101.853 21.6134 102.088 21.4431ZM102.642 20.059C102.13 20.059 101.682 20.1867 101.277 20.4423C100.872 20.6978 100.552 21.0598 100.317 21.507C100.082 21.9541 99.9758 22.4652 99.9758 23.0401C99.9758 23.6151 100.104 24.1261 100.338 24.5733C100.573 25.0205 100.893 25.3825 101.298 25.638C101.704 25.8935 102.151 26.0213 102.663 26.0213C102.919 26.0213 103.175 25.9787 103.431 25.8935C103.687 25.8084 103.901 25.7019 104.093 25.5528C104.263 25.4251 104.391 25.2973 104.498 25.1695V25.9148H106.844C106.844 25.9148 106.46 25.5528 106.162 25.1269C106.034 24.9353 105.906 24.5307 105.863 24.3817C105.82 24.2539 105.799 23.828 105.799 23.828V17.8657H104.455V20.8468C104.455 20.8468 104.263 20.6339 104.135 20.5487C103.943 20.3997 103.709 20.2932 103.453 20.1867C103.197 20.1016 102.919 20.059 102.642 20.059ZM107.399 6.89926L108.188 3.74775C108.039 3.70516 107.868 3.66257 107.676 3.61998C107.484 3.5774 107.292 3.5561 107.079 3.5561C106.588 3.5561 106.098 3.68387 105.671 3.9181C105.223 4.15233 104.839 4.47174 104.519 4.87633C104.434 4.9828 104.349 5.08927 104.285 5.19574L104.221 3.74775H101.512V13.2023H104.391V8.45373C104.391 8.1769 104.434 7.92138 104.519 7.68714C104.604 7.4742 104.732 7.26126 104.882 7.09091C105.031 6.92056 105.223 6.79279 105.458 6.70762C105.692 6.62244 105.927 6.57985 106.183 6.57985C106.418 6.57985 106.652 6.60115 106.866 6.66503C107.079 6.72891 107.271 6.79279 107.399 6.87797M115.227 8.45373C115.227 8.96478 115.142 9.41196 114.95 9.77396C114.779 10.1572 114.523 10.4341 114.203 10.647C113.883 10.86 113.499 10.9451 113.051 10.9451C112.603 10.9451 112.241 10.8387 111.942 10.647C111.622 10.4554 111.388 10.1572 111.196 9.77396C111.025 9.39066 110.94 8.96478 110.94 8.45373C110.94 7.94267 111.025 7.4955 111.196 7.1335C111.366 6.7502 111.622 6.47338 111.942 6.26044C112.262 6.0475 112.625 5.94103 113.051 5.94103C113.478 5.94103 113.883 6.0475 114.203 6.26044C114.523 6.47338 114.779 6.7502 114.95 7.1335C115.12 7.51679 115.227 7.94267 115.227 8.45373ZM118.043 13.2023V3.72645H115.206V4.89762C115.035 4.66339 114.843 4.47174 114.608 4.2801C114.331 4.04586 113.99 3.87551 113.606 3.72645C113.222 3.59869 112.817 3.53481 112.369 3.53481C111.537 3.53481 110.812 3.74775 110.172 4.17363C109.532 4.59951 109.02 5.17445 108.657 5.91974C108.295 6.66503 108.103 7.51679 108.103 8.47502C108.103 9.43325 108.295 10.2637 108.657 10.9877C109.02 11.7117 109.532 12.3079 110.15 12.7338C110.769 13.1597 111.494 13.3726 112.283 13.3726C112.71 13.3726 113.115 13.3088 113.499 13.181C113.883 13.0532 114.225 12.8829 114.544 12.6486C114.779 12.4783 114.971 12.2867 115.142 12.0737V13.2236H118.043V13.2023Z" fill="white"/>
</svg>
